<?xml version="1.0" encoding="UTF-8"?>
<!DOCTYPE svg PUBLIC "-//W3C//DTD SVG 1.1//EN" "http://www.w3.org/Graphics/SVG/1.1/DTD/svg11.dtd">
<!-- Creator: CorelDRAW -->
<svg xmlns="http://www.w3.org/2000/svg" xml:space="preserve" width="17.6927mm" height="17.903mm" version="1.1" style="shape-rendering:geometricPrecision; text-rendering:geometricPrecision; image-rendering:optimizeQuality; fill-rule:evenodd; clip-rule:evenodd"
viewBox="0 0 43.39 43.91"
 xmlns:xlink="http://www.w3.org/1999/xlink"
 xmlns:xodm="http://www.corel.com/coreldraw/odm/2003">
 <defs>
  <style type="text/css">
   <![CDATA[
    .fil0 {fill:#38B6FF}
    .fil1 {fill:white}
   ]]>
  </style>
 </defs>
 <g id="Camada_x0020_1_0">
  <metadata id="CorelCorpID_0Corel-Layer"/>
  <g id="_2574024992352">
   <path class="fil0" d="M15.08 5.39c0.01,0.12 -0.09,0.43 -0.14,0.55 -0.04,0.12 -0.05,0.12 -0.07,0.27 -0.04,0.27 -0.08,0.21 -0.12,0.24 0.02,0.25 -0.13,0.42 -0.08,0.68l-0 6.55c0,1.57 -0.03,3.35 0,4.9l0.13 1.1c0.04,0.15 0.07,0.15 0.07,0.35 -0.01,0.12 0.22,0.74 0.29,0.92 0.16,0.43 0.58,1.02 0.68,1.21l0.05 0.03c0.01,0 0.01,0.01 0.02,0.02l0.31 0.41c0,0 0.01,0.01 0.01,0.02l0.03 0.03c0,0 0.01,0.01 0.02,0.02l0.14 0.15c0.36,0.41 0.97,0.86 1.03,0.97 0.44,0.31 0.69,0.41 0.97,0.6 0.01,0 0.01,0.01 0.02,0.01 0.01,0 0.01,0.01 0.02,0.01l0.08 0.07 -0.01 -0.02c0.18,0 0.08,-0.01 0.09,0.05 0.19,-0 0.66,0.26 1.19,0.35 0.11,0.02 0.18,0.06 0.29,0.08 0.12,0.02 0.24,0 0.35,0.03 0.13,0.03 0.14,0.06 0.3,0.07 0.13,0.01 0.28,0.01 0.41,0.01 0.25,0 0.5,0 0.75,-0 0.25,-0 1.1,-0.15 1.33,-0.22 0.18,-0.05 0.47,-0.19 0.62,-0.16 0.02,-0.08 -0.08,-0.06 0.1,-0.06 0.02,-0.03 -0.09,-0.07 0.12,-0.03 0.02,-0.07 -0.04,-0.02 0.04,-0.06 0.03,-0.02 0.03,-0.01 0.08,-0.01 0.01,-0.05 -0.06,-0.06 0.07,-0.03 0.01,-0.02 -0.05,-0.03 0.07,-0.08 0.1,-0.05 0.05,-0.03 0.14,-0.01 0.04,-0.09 0.11,-0.12 0.24,-0.19 0.17,-0.1 0.69,-0.39 0.79,-0.52 0.01,-0.01 0.01,-0.04 0.02,-0.03l1.32 -1.38c0,-0.01 0.01,-0.01 0.01,-0.02 0,-0 0.04,-0.05 0.04,-0.05l0.24 -0.38c0,-0.01 0.01,-0.01 0.01,-0.02l0.06 -0.1c0,-0 0.01,-0.01 0.01,-0.02 0,-0.01 0.01,-0.01 0.01,-0.02l0.4 -0.7c0.09,-0.2 0.42,-1.11 0.4,-1.34 -0.02,-0.29 0.08,-0.47 0.09,-0.76 0.01,-0.27 0.01,-0.55 0.01,-0.82l0 -8.29c0,-0.73 0.02,-1.78 -0.01,-2.48 -0.01,-0.3 -0.1,-0.44 -0.09,-0.74l-0.27 -1.03c-0.05,-0.15 -0.11,-0.2 -0.09,-0.35 -0.06,-0.02 -0.02,0.04 -0.05,-0.04 -0.02,-0.04 -0.01,-0.02 -0.01,-0.08 -0.04,-0.02 -0.07,0.1 -0.03,-0.09 -0.05,-0.02 -0.03,0 -0.07,-0.05 -0.05,-0.06 -0,0 -0.04,-0.08 -0.06,-0.12 -0.06,-0.09 -0.09,-0.23 -0.03,-0.13 -0.07,-0.03 -0.08,-0.17 -0.07,-0.04 -0.02,0.01 -0.09,-0.06 -0.03,-0.04 -0.03,-0.04 -0.05,-0.08 -0.04,-0.07 -0.06,-0.08 -0.08,-0.14 -0.1,-0.06 -0.1,-0.1 -0.2,-0.23l-0.02 -0.04c-0,-0.01 -0.01,-0.01 -0.01,-0.02 -0,-0.01 -0.01,-0.01 -0.01,-0.02 -0,-0.01 -0.01,-0.01 -0.01,-0.02l-0.76 -0.87c-0,-0 -0.01,-0.01 -0.02,-0.01 -0,-0 -0.01,-0.01 -0.02,-0.02l-0.3 -0.26c-0.06,-0.05 -0.1,-0.07 -0.16,-0.12l-0.5 -0.35c-0.05,-0.04 -0.11,-0.09 -0.16,-0.11 -0.12,-0.06 -0.09,-0.01 -0.18,-0.14l-0.5 -0.26c-0.22,-0.11 -0.44,-0.15 -0.54,-0.26 -0.11,0.02 -0.13,0.04 -0.27,-0.1 -0.18,0.04 -0.2,-0.07 -0.39,-0.06 -0.17,0.01 -1.05,-0.16 -1.41,-0.18 -0.69,-0.03 -1.25,0.11 -1.79,0.19l-0.45 0.14c-0.12,0.06 -0.56,0.15 -0.97,0.38 -0.38,0.21 -0.44,0.22 -0.82,0.5 -0.42,0.31 -0.34,0.23 -0.79,0.62 -0.05,0.04 -0.05,0.04 -0.1,0.09l-0.06 0.06c-0,0 -0.01,0.01 -0.02,0.02l-0.16 0.16c-0,0.01 -0.01,0.01 -0.02,0.02l-0.7 0.9c-0,0.01 -0.01,0.01 -0.01,0.02 -0.22,0.33 -0.37,0.64 -0.54,1 -0.03,0.06 -0.03,0.08 -0.05,0.14 -0.06,0.14 0.01,0.07 -0.09,0.1z"/>
   <path class="fil0" d="M13 28.99c0.11,0.04 0.12,0.18 0.25,0.41 0.43,0.74 0.88,1.3 1.57,1.83l0.6 0.4c0.05,0.03 0.05,0.03 0.1,0.06l0.07 0.06c0,0 0.01,0.01 0.02,0.02 0,0 0.01,0.01 0.02,0.02 0.06,0 0.07,-0.01 0.14,0.04 0.06,0.04 0.02,0.02 0.05,0.05 0.11,0 1.34,0.56 2.06,0.52l2 0.02c0.06,0.25 0.02,6.49 0.02,7.44 0,0.92 0.09,1.03 -0.28,1.03l-3.78 0.02c-0.21,0 -0.38,0.15 -0.52,0.22 -0.05,0.03 -0.02,0.02 -0.08,0.04 -0.03,0.06 0.01,0 -0.05,0.08 -0.03,0.04 -0.05,0.05 -0.08,0.08 -0.04,0.03 -0.1,0.09 -0.12,0.13l-0.09 0.18c-0.04,0.08 -0.06,0.1 -0.09,0.19 -0.18,0.51 -0.15,0.89 0.09,1.34 0.09,0.18 0.36,0.42 0.52,0.53l0.08 0.05c0.01,0 0.01,0.01 0.02,0.01l0.27 0.11c0.17,0.06 0.32,0.06 0.51,0.06l8.73 0c0.62,0 1.86,0.09 2.27,-0.14 0.15,-0.09 0.31,-0.12 0.5,-0.35 0.05,-0.05 0.07,-0.08 0.11,-0.14 0.19,-0.23 0.17,-0.36 0.23,-0.47 0.07,-0.15 -0.06,0.08 0.02,-0.04 0.03,-0.04 0.03,-0.03 0.04,-0.05 -0.03,-0.14 -0.01,-0.3 -0.01,-0.45 -0.01,-0.25 -0.04,-0.19 -0.09,-0.36 -0.11,-0.38 -0.29,-0.45 -0.31,-0.61 -0.07,-0.01 -0.04,-0 -0.09,-0.04 -0.01,-0.01 -0.03,-0.02 -0.03,-0.03 -0.04,-0.04 -0.02,-0.02 -0.04,-0.06 -0.07,0.03 -0.06,0.04 -0.03,-0.03 -0.06,0.02 -0.05,0.03 -0.03,-0.03 -0.12,0.02 -0.05,0.01 -0.06,-0.03 -0.06,-0.01 -0.05,-0 -0.09,-0.03 -0.01,-0 -0.03,-0.02 -0.04,-0.03 -0.04,-0.03 -0.04,-0.04 -0.05,-0.05 -0.13,0.03 -0.1,0.02 -0.12,-0.06 -0.26,0.01 -0.7,-0.03 -1.01,-0.03l-3.02 0c-0.29,-0.02 -0.19,-0.4 -0.19,-1 0,-0.94 -0.04,-7.22 0.02,-7.45 0.21,-0.05 1.03,-0.02 1.3,-0.02 0.35,0 1.19,-0.06 1.47,-0.16 0.11,-0.04 0.19,-0.03 0.3,-0.06l0.96 -0.36c0.13,-0.06 0.33,-0.19 0.45,-0.2 0.05,-0.13 0.12,-0.11 0.28,-0.22 0.26,-0.17 0.65,-0.5 0.86,-0.71 0.15,-0.15 0.22,-0.29 0.38,-0.37 0.4,-0.6 0.34,-0.37 0.79,-1.26 0.02,-0.04 0.03,-0.06 0.04,-0.06 0.07,-0.13 0.03,-0.1 0.08,-0.21 0.09,-0.22 0.09,-0.32 0.2,-0.42l-0.02 -0.03c0,-0.13 0.09,-0.42 0.12,-0.56 0.04,-0.18 0.06,-0.36 0.08,-0.57 0.04,-0.44 0.04,-0.85 0.04,-1.32 0,-0.48 -0.05,-0.77 -0.25,-1.09 -0.17,-0.27 -0.41,-0.48 -0.71,-0.6 -0.21,-0.01 -0.15,-0.07 -0.35,-0.08 -0.77,-0.07 -1.27,0.22 -1.61,0.85l-0.08 0.12c0.01,0.13 0.05,-0.1 0,0.06 -0,0.01 -0,0.02 -0.01,0.03 -0.08,0.17 0.06,-0.04 -0.07,0.06l0.02 -0.01c0.03,0.45 0.02,1.75 -0.13,2.22 -0.02,0.05 -0.03,0.05 -0.05,0.1 -0,0.01 -0.03,0.07 -0.03,0.07 -0.03,0.06 -0.01,0.03 -0.04,0.05 0.03,0.07 0.05,0.07 -0.03,0.04 0.03,0.08 0.04,0.05 -0.04,0.05l-0 0.08c-0,0.13 -0.03,0.11 -0.09,0.13 0,0.14 -0.05,0.18 -0.23,0.4 -0.21,0.26 -0.78,0.76 -1.13,0.75 -0.02,0.09 -0.1,0.07 -0.36,0.15 -0.26,0.08 -5.8,0.04 -6.58,0.04 -0.25,0 -0.83,0.06 -0.92,-0.11 -0.16,0.01 -0.4,-0.04 -0.52,-0.15 -0.03,-0.03 -0.02,-0.03 -0.04,-0.06 -0.13,0.03 -0.05,0.02 -0.07,-0.03 -0.07,0.03 -0.06,0.04 -0.03,-0.03 -0.12,0.02 -0.05,0.01 -0.06,-0.03 -0.12,-0 -0.15,-0.05 -0.25,-0.13 -0.1,-0.08 -0.15,-0.11 -0.23,-0.18 -0.08,-0.08 -0.32,-0.32 -0.33,-0.45 -0.06,0.01 -0.05,0.02 -0.03,-0.04 -0.07,0.02 -0.05,0.03 -0.03,-0.04 -0.04,-0.02 -0.06,0.06 -0.03,-0.06 -0.03,-0.02 -0.05,0.07 -0.03,-0.07 -0.07,0.02 -0.05,0.03 -0.03,-0.03 -0.07,0.03 -0.05,0.03 -0.02,-0.04 -0.02,-0.02 0,0.01 -0.04,-0.05 -0.08,-0.11 -0.17,-0.37 -0.19,-0.5 -0.05,-0.29 -0.09,-0.38 -0.09,-0.72 -0,-0.27 0.05,-1.13 -0.05,-1.36 -0.04,-0.1 -0.04,-0.06 -0.05,-0.21 -0.02,-0.12 -0.06,-0.06 -0.07,-0.2l-0.36 -0.37c-0.06,-0.08 -0.02,-0.01 -0.05,-0.08 -0.14,0.01 -0.03,0.01 -0.07,-0.02 -0.1,-0.07 -0.03,-0.02 -0.05,-0.07 -0.13,0 -0.04,0.02 -0.14,-0.03l-0.04 -0.02c-0.01,-0 -0.01,-0.01 -0.02,-0.01 -0.1,-0.07 0.01,0.02 -0.05,-0.04 -0.13,0 -0.81,-0.31 -1.52,0.23 -0.33,0.26 -0.59,0.69 -0.6,1.27 -0.01,0.63 -0,1.22 0.07,1.81l0.29 1.13c0.06,0.15 0.11,0.15 0.1,0.38z"/>
   <path class="fil1" d="M3.74 1c0.03,0.07 0.05,0.07 -0.02,0.04 0.03,0.07 0.04,0.06 -0.03,0.03 0.03,0.13 0.01,0.04 -0.03,0.06 0,0.07 -0.43,0.84 -0.52,0.93 -0.07,0.06 0.04,0 -0.06,0.03 0.03,0.13 0.02,0.06 -0.03,0.07 -0,0.14 -0.05,0.15 -0.13,0.31 -0.07,0.14 -0.35,0.73 -0.45,0.81 0,0.17 0,0.05 -0.03,0.13l-0.17 0.3c-0.01,0.1 0.01,0.04 -0.03,0.1 -0.06,0.12 -0,0.02 -0.07,0.07l0.02 0.01c-0,0.17 -0.31,0.75 -0.38,0.93l-0.51 1.4c-0,0 -0.03,0.06 -0.03,0.07 -0.04,0.05 -0.01,0.01 -0.06,0.05l0.01 0.03c-0,0.1 -0.1,0.43 -0.14,0.52 -0.09,0.2 -0.04,0.21 -0.11,0.36l-0.05 0.09c-0,-0.01 -0.01,0.02 -0.01,0.02l-0.21 0.87c-0.03,0.11 -0.05,0.13 -0.08,0.27l-0.24 1.16c-0.06,0.22 -0.03,0.49 -0.07,0.67 -0.04,0.15 -0.07,0.04 -0.08,0.3 -0.01,0.12 -0.01,0.2 -0.02,0.31 -0.02,0.14 -0.05,0.15 -0.07,0.32l-0.09 0.75c-0.04,0.96 -0.13,3.38 0.03,4.32 0.03,0.18 0.14,1.15 0.13,1.29l0 0.27c0.03,0.04 0.02,0.02 0.06,0.08 0.06,0.12 0.16,0.87 0.16,0.95 0.02,0.15 0.07,0.26 0.09,0.43 0.09,0.08 0.11,0.12 0.12,0.26 0.02,0.21 0.05,0.18 0.08,0.32 0.03,0.13 0.01,0.2 0.06,0.32 0.05,0.12 0.08,0.19 0.05,0.34 -0.02,0.16 0.06,0.14 0.06,0.3 0.04,0.04 0.02,-0 0.07,0.08 0.02,0.03 0.02,0.03 0.03,0.07l0.12 0.48 -0.01 0c0.04,0.04 0.07,-0 0.11,0.15 0.05,0.17 -0.03,-0.01 0.03,0.15l0.09 0.28c0.03,0.11 0.04,0.07 0.07,0.15 0.05,0.12 0.13,0.35 0.12,0.47l-0.03 0.01c0.13,0.06 0.29,0.63 0.36,0.8l0.55 1.24c0,0.01 0.01,0.01 0.01,0.02l0.41 0.8c0.01,0.02 0.01,0.02 0.03,0.06l0.04 0.09c0,0.01 0.01,0.01 0.01,0.02l0.02 0.04c0,0.01 0.01,0.01 0.01,0.02 0,0.01 0.01,0.01 0.01,0.02l0.09 0.16c0.07,0.13 0.08,0.13 0.1,0.24l0 0.03c0.01,0.01 0.02,0.01 0.03,0.02 0.11,0.1 0.14,0.21 0.23,0.35 0.04,0.05 0.02,0.02 0.05,0.08l0.43 0.69 0.74 0.66c0.08,0.03 0.09,0.03 0.16,0.06l0.17 0.09 0.01 -0.02 0.56 -0 0.01 0.02 0.18 -0.1c0.67,-0.27 1.04,-0.77 1.03,-1.51 -0,-0.51 -0.29,-0.88 -0.56,-1.29 -0.28,-0.42 -0.42,-0.72 -0.66,-1.16 -0.06,-0.11 -0.12,-0.19 -0.16,-0.31 -0,-0.01 -0.01,-0.02 -0.01,-0.02l-0.18 -0.36c-0.14,-0.26 -0.14,-0.31 -0.23,-0.53l-0.3 -0.66c-0.19,-0.39 -0.24,-0.66 -0.38,-1l-0.55 -1.74c-0.08,-0.34 -0.28,-1.19 -0.31,-1.5l-0.03 -0.05c-0,-0.01 -0.01,-0.02 -0.01,-0.02 -0.06,-0.12 -0.09,-0.23 -0.05,-0.37 -0,-0.01 -0.01,-0.02 -0.01,-0.03 -0.06,-0.22 -0.18,-0.52 -0.1,-0.82 -0.16,-0.26 -0.1,-0.72 -0.12,-1.03 -0.08,-0.98 -0.1,-1.18 -0.08,-2.19l0.05 -0.81c0.02,-0.15 0.03,-0.17 0.08,-0.23l-0.02 -0.09c-0.05,-0.57 0.07,-0.71 0.09,-0.97 0.01,-0.13 0,-0.37 0.03,-0.49 0.04,-0.17 0.06,0 0.08,-0.42 0.01,-0.27 0.07,-0.2 0.09,-0.4 0.01,-0.08 0,-0.13 0.02,-0.22 0.03,-0.1 0.01,-0.03 0.03,-0.09 0.06,-0.15 0.06,-0.31 0.11,-0.51l0.13 -0.62c0.02,-0.09 0.05,-0.1 0.07,-0.18 0.02,-0.07 0.02,-0.14 0.04,-0.22 0.01,-0.03 0.04,-0.08 0.04,-0.08 0.03,-0.06 0.01,-0 0.03,-0.09 0.04,-0.21 0.07,-0.21 0.11,-0.39l0.25 -0.76c0.04,-0.11 0.1,-0.26 0.13,-0.36 0.04,-0.14 0.19,-0.62 0.34,-0.71l-0.02 -0.02 0 -0.12c0.1,-0.06 0.04,-0.04 0.1,-0.18l0.14 -0.27c0,-0.01 0.01,-0.01 0.01,-0.02 0.05,-0.1 0.02,-0.13 0.06,-0.19 0.09,-0.13 -0.01,-0.01 0.09,-0.07l-0.02 0.01c0,-0.14 0.06,-0.19 0.11,-0.29l0.24 -0.48c0.14,-0.21 -0.05,-0.12 0.17,-0.22 0.02,-0.1 0.05,-0.08 0.09,-0.16 0.02,-0.15 0.11,-0.26 0.2,-0.43l0.1 -0.18c0.04,-0.07 0.05,-0.1 0.1,-0.18 0.03,-0.05 0.09,-0.14 0.13,-0.18 0.04,-0.05 0.01,0 0.04,-0.05l0.23 -0.4c0.07,-0.08 0.02,-0.02 0.09,-0.06l-0.02 0.01c0.04,-0.26 0.19,-0.36 0.19,-0.75 0,-0.14 0.01,-0.3 -0.03,-0.42 -0.04,-0.14 -0.09,-0.16 -0.09,-0.35 -0.06,0.02 -0.05,0.03 -0.03,-0.03 -0.07,-0.04 0,0.01 -0.05,-0.04l-0.03 -0.03c-0,-0 -0.04,-0.06 -0.05,-0.08 -0.2,-0.3 -0.34,-0.31 -0.41,-0.44 -0.09,-0.01 -0.08,-0.01 -0.14,-0.05 -0.11,-0.07 -0.05,-0.03 -0.08,-0.08 -0.31,0 -0.82,-0.21 -1.37,0.09 -0.53,0.29 -0.58,0.68 -0.77,0.8z"/>
   <path class="fil1" d="M36.9 0.61c0.03,0.07 0.04,0.06 -0.03,0.03 0.03,0.07 0.04,0.06 -0.03,0.04 0.04,0.15 0.01,0.05 -0.03,0.07 0,0.1 0.03,0.03 -0.03,0.12 -0.05,0.09 -0.04,0.05 -0.07,0.07 0.02,0.11 0.02,0.09 -0.02,0.18 -0.06,0.14 -0.04,0.16 -0.07,0.12 -0,-0.01 -0.01,0.02 -0.02,0.03 0.07,0.32 -0.03,0.67 0.12,0.89 0.14,0.05 0.07,0.04 0.15,0.18l0.73 1.2c0.02,0.03 0.03,0.05 0.05,0.08 0.02,0.03 0.03,0.04 0.05,0.07l0.91 1.87c0,0.01 0.01,0.02 0.01,0.02l0.33 0.8c0.08,0.2 0.39,0.92 0.34,1.09 0.16,0.19 0.07,0.16 0.14,0.35 0.12,0.32 0.13,0.51 0.22,0.72l0.24 0.99c0.01,0.12 0.02,0.05 -0.01,0.17 -0.03,0.15 0.08,0.34 0.08,0.58 0.22,0.16 0.03,0.04 0.14,0.52 0.04,0.17 0.06,0.15 0.07,0.39 0.02,0.5 0.07,0.27 0.1,0.88 0.01,0.16 0.01,0.34 0.02,0.49 0.01,0.12 0.05,0.25 0.06,0.39l0.01 1.92c-0.01,0.61 -0.06,0.6 -0.07,0.88 -0.02,0.36 -0,0.59 -0.09,0.9 -0.09,0.34 0.06,0.5 -0.15,0.83 -0,0.12 -0.04,0.23 -0.07,0.36 -0.06,0.3 0.03,0.16 -0.09,0.58 -0.05,0.17 -0.03,0.38 -0.16,0.51l0.03 0.01c0,0.13 -0.28,1.23 -0.33,1.36l-0.55 1.62c-0.03,0.12 -0.05,0.05 -0.09,0.18 -0.08,0.22 -0,0.09 -0.12,0.17l0.02 -0.01c-0.02,0.23 -0.22,0.55 -0.3,0.8 -0.04,0.11 -0.13,0.25 -0.18,0.35 -0.06,0.12 -0.11,0.3 -0.22,0.36 -0.02,0.08 -0.1,0.21 -0.15,0.31 -0.03,0.07 -0.13,0.25 -0.13,0.28l-0.01 0.12c-0.08,0.06 -0.08,0.09 -0.15,0.22l-0.16 0.28c-0.13,0.2 -0.3,0.53 -0.43,0.7 -0,0 -0.01,0.01 -0.01,0.02l-0.06 0.07c-0.05,0.05 0.01,0 -0.08,0.05l0.02 -0.01c0.01,0.12 -0.01,0.1 -0.09,0.25l-0.05 0.08c0.01,0.05 0.04,-0 -0.01,0.08 -0.04,0.07 0.01,0.02 -0.06,0.06l0.02 0.03c0,0.17 -0.01,0.34 -0,0.52 0.02,0.34 0.25,0.77 0.51,0.98 0.05,0.04 0.09,0.07 0.14,0.11 0.63,0.46 1.28,0.16 1.46,0.16l0 0.02c0.03,-0.06 -0.06,-0.06 0.08,-0.04 -0.02,-0.07 -0.03,-0.06 0.03,-0.03 0.02,-0.04 -0.09,-0.06 0.08,-0.05 0.03,-0.04 -0.03,-0.01 0.06,-0.07 0.03,-0.02 0.02,-0.01 0.07,-0.02 0.02,-0.03 0.01,-0.03 0.04,-0.06 0.01,-0.01 0.02,-0.03 0.03,-0.03 0.06,-0.04 0,-0.02 0.09,-0.04 0.01,-0.08 -0.01,-0.09 0.09,-0.1 -0.01,-0.13 -0.01,-0.05 0.04,-0.06 -0.03,-0.07 -0.04,-0.06 0.03,-0.03 -0.02,-0.06 -0.03,-0.05 0.03,-0.04 -0.02,-0.12 -0.01,-0.05 0.03,-0.06 0.01,-0.07 0,-0.04 0.03,-0.09 0.08,-0.12 0.02,-0.02 0.07,-0.06 0.01,-0.1 0.63,-1.11 0.71,-1.23l1.06 -2.15c0.13,-0.27 0.27,-0.61 0.38,-0.91l0.23 -0.57c0.02,-0.05 0.03,-0.06 0.04,-0.12 0.04,-0.13 0.05,-0.15 0.08,-0.22l0.11 -0.34c0,-0.01 0.01,-0.04 0.01,-0.05l0.08 -0.23c0.01,-0.05 0.02,-0.08 0.03,-0.13 0.04,-0.13 0.05,-0.07 0.08,-0.23 0.03,-0.13 0.09,-0.39 0.13,-0.49 0.1,-0.27 0.04,-0.29 0.15,-0.44 0,-0.01 0.02,-0.01 0.02,-0.02 0,-0.02 0.01,-0.02 0.02,-0.02 -0,-0.08 0.02,-0.15 0.05,-0.23 0.03,-0.1 0.03,-0.14 0.06,-0.26 0.04,-0.19 0.12,-0.29 0.09,-0.52 -0.01,-0.08 0.06,-0.48 0.09,-0.62l0.28 -1.8c0.01,-0.2 -0,-0.5 0.03,-0.68 0.02,-0.11 0.05,-0.14 0.07,-0.26l0.02 -1.73c-0,-0.46 -0.01,-0.92 -0.01,-1.38 -0.01,-0.46 -0.08,-0.82 -0.1,-1.29 -0.01,-0.24 -0.08,-0.35 -0.09,-0.6 -0.02,-0.31 -0.29,-1.68 -0.27,-1.82l0.03 -0.01c-0.01,-0.01 -0.01,-0.02 -0.02,-0.03 -0,-0.01 -0.01,-0.02 -0.02,-0.03l-0.2 -0.75c-0.03,-0.18 -0.07,-0.26 -0.1,-0.41 -0.03,-0.17 -0.09,-0.24 -0.1,-0.43l0.03 0c-0.03,-0.03 -0.02,-0.02 -0.06,-0.07 -0.08,-0.12 -0.07,-0.26 -0.12,-0.39l-0.17 -0.54c-0.1,-0.2 -0.14,-0.41 -0.22,-0.62 -0.04,-0.11 -0.01,0.06 -0.04,-0.12 -0.01,-0.23 -0.54,-1.38 -0.66,-1.64 -0.04,-0.09 -0.08,-0.17 -0.11,-0.26 -0.06,-0.13 -0.06,-0.13 -0.12,-0.25l-1.06 -1.99c-0.08,-0.04 -0.02,0.01 -0.09,-0.07 -0.02,-0.03 -0.23,-0.4 -0.32,-0.5 -0.01,-0.01 -0.02,-0.01 -0.02,-0.02l-0.04 -0.04c-0.07,-0.07 -0.05,-0.09 -0.11,-0.18 -0.26,-0.37 -0.41,-0.33 -0.57,-0.51 -0.09,-0.02 -0.01,0.01 -0.02,-0.05 -0.07,0.03 -0.07,0.05 -0.04,-0.03 -0.13,0.04 -0.05,0.02 -0.07,-0.03 -0.26,0.05 -0.54,-0.18 -1.06,0.06 -0.53,0.24 -0.36,0.22 -0.65,0.46 -0.05,0.05 -0.02,0.02 -0.08,0.05z"/>
   <path class="fil1" d="M9.14 6.42l-0.08 0.09c-0.06,0.05 -0.3,0.1 -0.57,0.52l-0.07 0.09c-0,0.01 -0.01,0.01 -0.01,0.02 -0,0.01 -0.01,0.01 -0.01,0.02l-0.09 0.14c-0.11,0.2 -0.14,0.2 -0.19,0.28 -0.11,0.22 0.05,0.04 -0.15,0.2 -0.05,0.06 -0.15,0.21 -0.17,0.27 -0.01,0.14 -0.25,0.51 -0.28,0.56l-0.14 0.33c-0.03,0.05 0.01,-0 -0.04,0.06l-0.04 0.04c-0,0.01 -0.01,0.01 -0.02,0.02l0.02 0.01 0.01 0.12c-0.18,0.08 -0.01,0.11 -0.18,0.3 -0.01,0.01 -0.02,0.02 -0.02,0.02 -0.01,0.01 -0.02,0.02 -0.02,0.02 -0.01,0.03 -0.01,0.05 -0.04,0.08 -0.01,0.01 -0.03,0.04 -0.04,0.06 -0.04,0.05 -0.02,0.03 -0.05,0.05 0.03,0.14 -0,0.11 -0.04,0.23 -0.01,0.04 -0.03,0.1 -0.04,0.12 -0.07,0.14 0.01,0.06 -0.08,0.08 0.02,0.12 0.04,-0.02 0.01,0.07 -0.02,0.08 -0,0.03 -0.04,0.08 0.01,0.09 -0.12,0.45 -0.15,0.58 -0.07,0.23 -0.08,0.38 -0.13,0.63 -0.04,0.24 -0.23,1.07 -0.17,1.31 0.03,0.26 -0.02,0.52 -0.02,0.77 -0.02,0.68 0.03,0.95 0.04,1.53 0,0.26 0.12,0.46 0.08,0.74l-0.03 0.05 0.22 0.96 0 0.06c0.16,0.1 0.06,0 0.12,0.27 0.03,0.16 -0,0.02 0.05,0.13l0.27 0.8c0.03,0.06 0.03,0.02 0.06,0.11 0.09,0.28 0.06,0.07 0.1,0.27 0.03,0.13 0.06,0.15 0.1,0.26 0.06,0.17 0.1,0.09 0.09,0.29 0.12,0.03 0.07,0.06 0.13,0.18 0.04,0.08 0.08,0.08 0.08,0.22 0.06,0.02 0.08,-0.04 0.06,0.09 0.02,0.02 0.06,-0.09 0.03,0.09 0.02,0.01 0.04,-0.01 0.07,0.02l-0.01 0.07 0.22 0.38c0.04,0.02 0.05,-0.07 0.03,0.06 0.07,-0.02 0.05,-0.03 0.03,0.03 0.07,-0.03 0.04,-0.03 0.03,0.06 0.02,0.08 0.4,0.62 0.48,0.72 0.28,0.34 0.74,0.59 1.23,0.58 0.32,-0.01 0.67,-0.14 0.92,-0.33 0.71,-0.55 0.79,-1.47 0.21,-2.29 -0,-0.01 -0.01,-0.01 -0.01,-0.02l-0.62 -1.04c-0.1,-0.24 -0.16,-0.18 -0.18,-0.45 -0.05,-0.05 -0.08,-0.08 -0.08,-0.18 -0.04,-0.03 -0.07,0.02 -0.12,-0.16 -0.03,-0.11 -0.03,-0.1 -0.07,-0.19 -0.04,-0.08 -0.12,-0.34 -0.12,-0.43 0.01,-0.2 -0.1,-0.25 -0.09,-0.46 -0.2,-0.12 -0.04,-0.21 -0.16,-0.51l-0.14 -1.17c-0.01,-0.34 -0.03,-1 0.05,-1.3 0.05,-0.2 0.02,-0.43 0.06,-0.6 0.03,-0.1 0.05,-0.08 0.07,-0.24 0.03,-0.22 0.06,-0.48 0.16,-0.69 0,-0.01 0.01,-0.01 0.01,-0.02l0.06 -0.12c0,-0.17 0.53,-1.52 0.72,-1.71l0.06 -0.05c0.01,-0.09 0.13,-0.32 0.19,-0.36 -0,-0.1 -0.03,-0.1 0.05,-0.06 -0.03,-0.07 -0.04,-0.06 0.03,-0.03 -0.01,-0.19 0.25,-0.38 0.42,-0.83 0.08,-0.2 0.11,-0.61 0.05,-0.85 -0.03,-0.1 -0.06,-0.1 -0.07,-0.22 -0.07,0 -0.05,0.01 -0.02,-0.07 -0.07,-0.03 -0.08,0.04 -0.06,-0.09 -0.07,0.04 -0.04,-0.04 -0.03,-0.09 -0.09,-0.02 -0.09,-0.02 -0.1,-0.15 -0.06,0.02 -0.05,0.03 -0.03,-0.03 -0.07,0.02 -0.06,0.04 -0.04,-0.03 -0.07,0.03 -0.04,0.03 -0.02,-0.04 -0.06,0.02 -0.05,0.03 -0.03,-0.03 -0.07,0.02 -0.07,0.05 -0.04,-0.02 -0.07,0.03 -0.05,0.03 -0.03,-0.04 -0.06,0.02 -0.05,0.03 -0.03,-0.03 -0.12,-0.01 -0.03,0.03 -0.12,-0.04 -0.03,-0.02 -0.01,-0.01 -0.03,-0.03 -0.03,-0.04 -0.02,-0.03 -0.04,-0.06 -0.1,-0.01 -0.03,0.01 -0.1,-0.03 -0.01,-0 -0.03,-0.02 -0.04,-0.03 -0.04,-0.03 -0.04,-0.03 -0.05,-0.05 -0.13,0.03 -0.06,0.02 -0.06,-0.03 -0.07,0.03 -0.06,0.05 -0.04,-0.02 -0.14,0.01 -0.28,-0.03 -0.44,-0.04 -0.16,-0.01 -0.32,0.02 -0.48,0.02 -0.16,-0.01 -0.13,0.05 -0.24,0.07z"/>
   <path class="fil1" d="M33.29 6.44c-0.06,0.13 0.01,0.03 -0.1,0.11 -0.01,0.01 -0.03,0.02 -0.04,0.02 -0.15,0.1 -0.29,0.24 -0.39,0.39l-0.09 0.13c-0,0 -0.01,0.01 -0.01,0.02l-0.05 0.05 0.02 0.08c-0.04,0.04 -0.01,0 -0.08,0.01 0.06,0.27 -0.15,0.48 -0.05,0.79 0.04,0.13 0.04,0.26 0.1,0.37 0.2,0.38 0.27,0.42 0.47,0.73l0.32 0.59c0.05,0.09 0.05,0.06 0.04,0.16 0.1,0.03 0.03,-0.09 0.1,0.08 0.04,0.08 0.02,0.07 -0,0.14 0.06,0.01 0.04,-0.02 0.08,0.02l-0.02 0.08c0.01,0 0.02,0.01 0.02,0.02 0,0 0.01,0.02 0.01,0.02 0.02,0.04 0.02,0.03 -0.01,0.05 0.09,0.02 0.03,-0.05 0.09,0.05 0.04,0.08 0.02,0.05 0.01,0.14l-0.03 0.07c0.05,0.03 0.06,-0.01 0.11,0.15l0.05 0.14c0.05,0.1 0.07,0.19 0.12,0.29 0.05,0.12 0.15,0.54 0.14,0.66 0.22,0.66 0.35,2.32 0.23,2.92 -0.02,0.13 -0.06,0.27 -0.03,0.42 0.02,0.21 0,0.34 -0.06,0.52l-0.08 0.16 0.02 -0.03c0,0.08 0.01,0.13 -0.01,0.21 -0,0.01 -0.02,0.06 -0.03,0.07 -0.05,0.09 -0.03,0.04 -0.08,0.08l0.03 0.04c0.03,0.22 -0.03,0.14 -0.1,0.41l-0.01 0.05c-0.03,0.1 -0.02,0.06 -0.03,0.1l-0.49 1.22 -0.9 1.51c-0.02,0.06 -0.09,0.31 -0.1,0.36 -0.08,0.5 0.23,1.17 0.69,1.46 0.09,0.06 0.1,0.04 0.18,0.14 0.11,0.02 0.17,0.08 0.33,0.11 0.58,0.13 0.83,-0.06 1.17,-0.21 0.05,-0.13 0.22,-0.19 0.46,-0.53l0.73 -1.18c0,-0.01 0.02,-0.03 0.02,-0.04 0.01,-0.02 0.02,-0.04 0.04,-0.06l0.06 -0.07c0.01,-0.01 0.02,-0.02 0.02,-0.03 0.07,-0.1 0.23,-0.44 0.28,-0.57 0.04,-0.1 0.08,-0.21 0.13,-0.32 0.16,-0.37 0.57,-1.43 0.55,-1.68l0.26 -1.36 0.11 -1.51 -0.1 -1.65c-0.07,-0.53 -0.25,-1.17 -0.36,-1.68l-0.25 -0.81c-0.03,-0.08 -0.04,-0.12 -0.07,-0.21l-0.07 -0.23c0.01,-0.09 -0.05,-0.15 -0.07,-0.21l-0.1 -0.1c-0.03,-0.05 -0.02,-0.06 -0.04,-0.11l-0.48 -0.93c-0.07,-0.13 -0.19,-0.26 -0.19,-0.4l0.02 -0.03c-0.08,0 -0.07,0.02 -0.04,-0.06 -0.07,0.03 -0.06,0.04 -0.03,-0.03 -0.06,-0.01 -0.06,0.06 -0.03,-0.06 -0.05,-0.01 -0.06,0.06 -0.03,-0.06 -0.07,0.03 -0.06,0.04 -0.03,-0.03 -0.06,-0.01 -0.07,0.07 -0.03,-0.06 -0.06,-0.02 -0.03,0 -0.08,-0.05 -0.03,-0.03 -0.03,-0.04 -0.05,-0.08 -0.07,-0.11 -0.06,-0.04 -0.06,-0.16 -0.03,-0.01 -0.04,0.02 -0.1,-0.06 -0.05,-0.07 -0.03,-0.05 -0.03,-0.13 -0.07,0.03 -0.06,0.04 -0.03,-0.03 -0.07,0.03 -0.06,0.04 -0.03,-0.03 -0.07,0.03 -0.05,0.03 -0.03,-0.04 -0.07,0.03 -0.05,0.04 -0.03,-0.03 -0.07,0.03 -0.07,0.04 -0.04,-0.03 -0.07,0.03 -0.06,0.04 -0.03,-0.03 -0.07,0.03 -0.06,0.04 -0.03,-0.03 -0.21,-0.01 -0.23,-0.24 -0.83,-0.32 -0.58,-0.08 -0.73,0.1 -0.91,0.13z"/>
  </g>
 </g>
</svg>
