<?xml version="1.0" encoding="UTF-8"?>
<!DOCTYPE svg PUBLIC "-//W3C//DTD SVG 1.1//EN" "http://www.w3.org/Graphics/SVG/1.1/DTD/svg11.dtd">
<!-- Creator: CorelDRAW -->
<svg xmlns="http://www.w3.org/2000/svg" xml:space="preserve" width="13.8718mm" height="17.9027mm" version="1.1" style="shape-rendering:geometricPrecision; text-rendering:geometricPrecision; image-rendering:optimizeQuality; fill-rule:evenodd; clip-rule:evenodd"
viewBox="0 0 23.75 30.66"
 xmlns:xlink="http://www.w3.org/1999/xlink"
 xmlns:xodm="http://www.corel.com/coreldraw/odm/2003">
 <defs>
  <style type="text/css">
   <![CDATA[
    .fil0 {fill:#3EC1C9}
    .fil1 {fill:white}
   ]]>
  </style>
 </defs>
 <g id="Camada_x0020_1_0">
  <metadata id="CorelCorpID_0Corel-Layer"/>
  <path class="fil0" d="M6.3 16.44c-0.23,-0.22 -0.46,-0.48 -0.67,-0.83 -0.04,-0.26 -1.79,-2.43 -0.95,-5.85 0.92,-3.78 4.73,-6.27 8.68,-5.48 0.95,0.19 1.91,0.61 2.58,1.06 0.66,0.44 1.38,1.1 1.86,1.74 1.06,1.41 1.77,3.38 1.41,5.68 -0.93,5.79 -8.04,8.34 -12.48,4.13 -0.15,-0.14 -0.28,-0.33 -0.42,-0.44zm-2.07 -13.4c-0,0.55 0.13,1.08 0.16,1.63 0.04,0.7 -0.1,0.98 -0.71,1.13 -0.75,0.19 -2.82,-0.03 -2.52,1.1 0.19,0.73 1.25,1.77 1.19,2.45 -0.04,0.43 -0.56,0.73 -0.91,0.94 -0.36,0.22 -0.83,0.49 -1.11,0.73 -0.98,0.82 0.49,1.51 1.09,1.89 1.15,0.72 1.19,0.98 0.39,2.22 -0.5,0.77 -1.35,1.82 0.25,2.08 1.48,0.24 2.41,-0.06 2.33,1.35 -0.05,0.94 -0.65,2.72 0.8,2.42 1.04,-0.21 2.22,-1.06 2.72,-0.3 0.41,0.63 0.67,2.23 1.2,2.47 0.49,0.22 0.98,-0.37 1.19,-0.57 0.89,-0.87 1.31,-1.57 2.18,-0.92 1.1,0.82 1.96,2.8 2.82,0.36 0.46,-1.31 0.51,-1.96 1.85,-1.51 0.85,0.28 2.37,1.13 2.37,-0.37 0,-0.55 -0.14,-1.09 -0.16,-1.63 -0.02,-0.69 0.13,-0.95 0.73,-1.1 0.76,-0.18 2.8,0.03 2.5,-1.1 -0.19,-0.73 -1.24,-1.75 -1.2,-2.44 0.03,-0.43 0.56,-0.73 0.9,-0.94 0.38,-0.24 0.79,-0.46 1.12,-0.72 1,-0.81 -0.5,-1.53 -1.09,-1.9 -1.13,-0.71 -1.21,-0.97 -0.39,-2.21 0.18,-0.28 0.53,-0.8 0.64,-1.16 0.35,-1.13 -1.49,-0.89 -2.48,-1.13 -0.6,-0.14 -0.76,-0.41 -0.74,-1.09 0.04,-1.11 0.65,-2.75 -0.77,-2.48 -1.09,0.21 -2.23,1.1 -2.76,0.28 -0.41,-0.63 -0.62,-2.14 -1.19,-2.44 -0.47,-0.25 -1.01,0.4 -1.19,0.57 -0.34,0.34 -0.55,0.6 -0.95,0.89 -0.86,0.64 -1.2,0.09 -2.17,-0.88 -1,-1 -1.37,-0.88 -1.88,0.55 -0.49,1.39 -0.53,1.93 -1.88,1.49 -0.99,-0.32 -2.34,-1.09 -2.34,0.34z"/>
  <path class="fil1" d="M15.47 30.66l1.66 -3.38c0.21,0.07 1.35,0.81 1.65,0.99 0.55,0.32 1.07,0.67 1.62,0.97l-2.12 -7.22c-0.22,-0.14 -0.59,-0.2 -0.85,-0.3 -0.26,-0.1 -0.53,-0.2 -0.8,-0.27 -0.29,0.3 -0.7,3.78 -3.14,2.55l1.97 6.66z"/>
  <path class="fil1" d="M10.05 24.1c-0.49,0.13 -0.72,0.24 -1.26,0.04 -1.22,-0.44 -1.36,-2.38 -1.67,-2.7 -0.31,0.1 -0.58,0.19 -0.89,0.3 -0.32,0.12 -0.6,0.17 -0.93,0.28l-1.93 6.78c0.27,-0.14 0.55,-0.33 0.82,-0.5 0.35,-0.22 2.24,-1.42 2.44,-1.48 0.12,0.41 0.62,1.29 0.83,1.73 0.22,0.44 0.6,1.32 0.85,1.66l1.74 -6.13z"/>
  <path class="fil1" d="M10.5 13.81l-1.9 -1.89c-0.23,-0.22 -0.65,-0.78 -1.11,-0.79 -0.55,-0.01 -1.01,0.52 -0.75,1.1 0.09,0.21 1.61,1.67 1.87,1.93l1.89 1.89c0.48,-0.53 1.04,-1.04 1.55,-1.56 0.55,-0.55 4.61,-4.51 4.7,-4.79 0.16,-0.47 -0.12,-0.86 -0.44,-1 -0.5,-0.21 -0.87,0.15 -1.08,0.36 -0.52,0.54 -1.05,1.06 -1.58,1.59l-3.15 3.14z"/>
 </g>
</svg>
