<?xml version="1.0" encoding="UTF-8"?>
<!DOCTYPE svg PUBLIC "-//W3C//DTD SVG 1.1//EN" "http://www.w3.org/Graphics/SVG/1.1/DTD/svg11.dtd">
<!-- Creator: CorelDRAW -->
<svg xmlns="http://www.w3.org/2000/svg" xml:space="preserve" width="17.8993mm" height="17.9028mm" version="1.1" style="shape-rendering:geometricPrecision; text-rendering:geometricPrecision; image-rendering:optimizeQuality; fill-rule:evenodd; clip-rule:evenodd"
viewBox="0 0 47.52 47.53"
 xmlns:xlink="http://www.w3.org/1999/xlink"
 xmlns:xodm="http://www.corel.com/coreldraw/odm/2003">
 <defs>
  <style type="text/css">
   <![CDATA[
    .fil0 {fill:#38B6FF}
    .fil1 {fill:white}
   ]]>
  </style>
 </defs>
 <g id="Camada_x0020_1">
  <metadata id="CorelCorpID_0Corel-Layer"/>
  <path class="fil0" d="M5.77 39.05l35.99 0c0.26,0 0.21,0.02 0.21,0.54 -0,0.91 0.05,4.4 0,4.98 -0.01,0.12 0,0.17 -0.21,0.17l-35.99 0c-0.26,0 -0.21,-0.02 -0.21,-0.53l0 -4.58c0,-0.12 -0.01,-0.29 -0,-0.4 0.01,-0.18 0.01,-0.19 0.21,-0.19zm-2.89 -4.58c-0.01,-0.38 0.53,-0.91 0.92,-0.89 0.03,-0.06 -0.06,-0.08 0.12,-0.05 0.02,-0.01 0.01,-0.02 0.09,-0.03 0.06,-0.01 0.11,-0.01 0.16,-0.02 1.26,-0.04 3.38,0 4.67,0l34.14 0c0.14,-0 0.5,-0.02 0.61,0.05 0.43,-0.04 1.06,0.54 1.05,0.94 0.11,0.05 0.09,0.05 0.11,0.24 0.01,0.11 0.01,0.29 -0.01,0.4 -0.01,0.12 -0.03,0.17 -0.07,0.27 -0.03,0.07 -0.02,0.07 -0.05,0.13 -0.05,0.07 0.06,-0 -0.11,0.11 0.03,0.09 0.05,0.08 -0.04,0.05 -0.04,0.26 -0.41,0.49 -0.73,0.59 -0.38,0.12 -3.43,0.05 -3.96,0.05l-34.67 0c-0.36,0 -0.97,0.05 -1.29,-0.04 -0.32,-0.09 -0.73,-0.33 -0.77,-0.6 -0.09,0.03 -0.07,0.04 -0.04,-0.05 -0.04,-0.03 -0.02,0.07 -0.11,-0.11 -0.06,-0.12 -0.04,-0.08 -0.05,-0.21l0.03 0c-0.04,-0.03 -0.12,0.06 -0.12,-0.41 0,-0.18 -0.01,-0.35 0.11,-0.42zm8.91 -4.6c0.03,-0.14 -0.09,0.08 0.02,-0.07 0.05,-0.06 0.03,-0.04 0.07,-0.06l0.02 -0.1c0.02,-0.12 0,0 0.07,-0.03 0.03,-0.12 0.19,-0.33 0.35,-0.4 0.05,-0.12 0.06,-0.11 0.16,-0.19 0.09,-0.08 0.09,-0.1 0.21,-0.14 0.07,-0.17 0.41,-0.38 0.6,-0.42 -0.03,-0.09 -0.04,-0.07 0.05,-0.03 0.02,-0.05 -0.11,-0.07 0.1,-0.04 0.07,-0.12 -0.01,-0.09 0.19,-0.08 0.08,-0.11 0.27,-0.18 0.44,-0.2 0.39,0.03 0.71,-0.32 2.09,-0.08 0.34,0.06 0.62,0.17 0.91,0.29 0.25,0.11 0.55,0.35 0.76,0.43 0.12,-0.02 0.11,-0.05 0.07,0.05 0.09,-0.04 0.08,-0.05 0.05,0.04 0.09,-0.03 0.07,-0.05 0.05,0.04 0.08,-0.03 0.07,-0.04 0.05,0.04 0.14,0.02 0.06,-0.01 0.16,0.06 0.13,0.1 0.08,0.07 0.1,0.16 0.15,0.06 0.44,0.43 0.47,0.58 0.07,0.05 -0.01,-0.06 0.09,0.09 0.02,0.03 0.04,0.08 0.06,0.11 0.06,0.1 0.09,0.15 0.15,0.25 0.06,0.12 0.19,0.39 0.21,0.53 -0.24,0.1 -4.96,0.05 -5.89,0.05 -0.29,0 -2.02,0.11 -2,-0.11 0,-0.04 0.02,-0.09 0.04,-0.12l0.22 -0.45c0.02,-0.03 0.04,-0.07 0.07,-0.11l0.08 -0.09zm4.25 -7.28c0.09,-0.03 0.08,-0.05 0.05,0.04 0.18,0.03 0.25,0.14 0.35,0.27 0.1,0.13 0.19,0.25 0.18,0.44 0.04,0.03 0.03,-0.02 0.07,0.05 0.06,0.11 0.05,0.51 0.03,0.64 -0.02,0.14 -0,0.11 -0.1,0.15 0.02,0.17 -0.09,0.32 -0.18,0.44 -0.1,0.13 -0.17,0.24 -0.35,0.27 0.03,0.09 0.04,0.07 -0.05,0.04 -0.04,0.06 0.08,0 -0.11,0.11 -0.39,0.22 -0.99,0.14 -1.35,-0.07 -1.5,-0.87 -0.3,-3.1 1.15,-2.56 0.16,0.06 0.21,0.05 0.3,0.18zm-4.24 3.51c-0.86,0.61 -1.45,1.01 -2.11,1.92 -0.49,0.69 -0.93,1.58 -1.13,2.43 -0.05,0.23 -0.01,0.26 -0.28,0.26l-2.69 -0 -0.01 -14.04c0,-0.37 0.15,-0.23 0.68,-0.53 0.94,-0.52 0.38,-0.7 1.25,-0.11 1.29,0.88 3.18,0.85 4.47,0.02 0.96,-0.63 0.08,-0.49 1.75,0.32 0.36,0.17 1.11,0.32 1.6,0.32 0.77,0 1.59,-0.25 2.21,-0.63 0.9,-0.56 0.29,-0.53 1.12,-0.03 0.62,0.37 1.48,0.67 2.26,0.66 0.72,-0.01 1.7,-0.28 2.26,-0.66 0.2,-0.13 0.36,-0.27 0.55,-0.4 0.24,0.12 0.35,0.25 0.56,0.39 0.58,0.4 1.51,0.67 2.25,0.67 0.77,0 1.68,-0.27 2.27,-0.66 0.19,-0.13 0.37,-0.28 0.56,-0.41 0.98,0.62 1.29,0.98 2.76,1.06 1.64,0.1 2.7,-1.01 2.86,-1.02 0.2,0.05 0.37,0.25 0.55,0.37 1.03,0.7 2.64,0.86 3.83,0.35 0.21,-0.09 0.48,-0.23 0.64,-0.33 0.81,-0.54 0.32,-0.52 1.2,0.04 0.14,0.09 0.57,0.3 0.75,0.35l0 14.27 -19.59 0c-0.27,0 -0.21,0.01 -0.37,-0.56 -0.43,-1.58 -1.54,-2.99 -2.9,-3.88 -0.51,-0.33 -0.18,-0.13 0.19,-1.19 0.85,-2.46 -0.81,-5.25 -3.7,-5.5 -0.76,-0.06 -1.1,0.08 -1.67,0.25 -1,0.29 -2.14,1.43 -2.47,2.36 -0.44,1.26 -0.4,2.02 0.06,3.23 0.1,0.25 0.28,0.43 0.31,0.67zm10.67 -13.97c-0.05,0.52 -0.07,0.8 -0.32,1.16l-0.04 0.05c-0.76,1.03 -2.39,0.59 -2.53,-0.3 0,-0.22 -0.12,-0.4 -0.08,-0.74 -0.08,-0.08 -0.05,0.01 -0.11,-0.19 -0.18,-0.6 -0.65,-0.73 -0.8,-0.9 -0.51,-0.02 -0.61,-0.16 -1.11,0.09 -0.86,0.43 -0.7,1.18 -0.86,1.69 -0.33,1.04 -1.76,1.26 -2.42,0.36 -0.47,-0.64 -0.07,-1.24 -0.72,-1.83 -0.53,-0.49 -1.36,-0.5 -1.9,0.01 -0.61,0.58 -0.25,1.21 -0.72,1.84 -0.35,0.47 -1.07,0.78 -1.77,0.38 -0.66,-0.37 -0.68,-0.8 -0.82,-1.69l-0.13 -0.14c-0.01,-0.01 -0.04,-0.07 -0.07,-0.11 -0.06,-0.1 -0.09,-0.15 -0.16,-0.23 -0.2,-0.2 -0.29,-0.2 -0.36,-0.25 -0.16,-0.09 -0.03,0 -0.11,-0.11 -2.1,-0.32 -1.7,1.37 -2.05,1.99 -0.22,0.38 -0.73,0.78 -1.38,0.69 -0.48,-0.06 -1.1,-0.5 -1.12,-0.94 -0.06,-0.04 -0.07,-0.01 -0.1,-0.13l0.07 -1.19c0.03,-0.1 0.04,-0.07 0.06,-0.1 -0,-0.16 0.06,-0.41 0.17,-0.55 -0,-0.06 -0.01,-0.08 0.01,-0.12 0.06,-0.16 -0,-0.01 0.07,-0.07 0.03,-0.35 0.62,-1.03 0.83,-1.24 0.16,-0.17 0.39,-0.34 0.57,-0.48 0.13,-0.1 0.51,-0.31 0.68,-0.36 0.8,-0.29 0.61,-0.21 1.34,-0.32 0.51,-0.08 1.05,-0.06 1.61,-0.06 7.7,0 15.4,0 23.1,0 1.52,0 8.64,-0.07 9.83,0.07 1.23,0.15 2.48,0.94 3.02,1.96 1.67,3.14 -0.57,4.09 -1.65,3.24 -0.89,-0.7 -0.18,-1.5 -1.1,-2.2 -0.41,-0.31 -0.72,-0.28 -1.29,-0.19 -0.08,0.11 0.01,0.04 -0.14,0.12 -0.4,0.22 -0.33,0.24 -0.58,0.6 -0.08,0.12 -0.01,0.04 -0.11,0.11 -0.1,0.63 -0.12,1.05 -0.47,1.43 -0.33,0.35 -0.77,0.49 -1.38,0.38 -0.13,-0.01 -0.16,-0.02 -0.22,-0.05l-0.37 -0.24c-0.15,-0.13 -0.29,-0.31 -0.34,-0.54 -0.25,-0.7 0.02,-1.06 -0.6,-1.56 -0.45,-0.37 -1.16,-0.44 -1.66,-0.08 -0.74,0.53 -0.53,1.1 -0.67,1.5 -0.44,1.33 -2,1.31 -2.61,0.35 -0.36,-0.57 -0.07,-1.01 -0.56,-1.6 -0.97,-1.15 -2.57,-0.1 -2.42,0.86 0.04,0.21 0.03,0.27 -0.04,0.45 -0.1,0.26 -0.2,0.46 -0.42,0.65l-0.15 0.11c-0.34,0.22 -0.82,0.33 -1.21,0.19l-0.1 -0.04c-0.19,-0.06 -0.31,-0.15 -0.46,-0.28 -0.16,-0.14 -0.21,-0.22 -0.26,-0.35 -0.02,-0.15 -0.14,-0.35 -0.16,-0.6 -0.05,-0.65 -0.19,-1.05 -0.86,-1.38 -0.86,-0.43 -1.86,0.38 -1.84,0.89zm-13.83 -6.57c0.04,-0.25 0.25,-0.63 0.38,-0.82 0.19,-0.29 0.28,-0.37 0.48,-0.62 0.31,-0.38 0.79,-0.71 1.3,-0.95 1.13,-0.54 2.59,-0.39 4.04,-0.39 5.95,0 11.91,0 17.86,0 1.6,0 2.71,-0.16 4.08,0.4 0.81,0.33 1.98,1.58 2.11,2.38l-30.25 0zm-5.79 41.02l0.09 0.11c0.5,0.79 0.52,0.46 0.73,0.75 0.09,-0 0.44,0.07 0.69,0.07l38.19 -0c0.55,0 0.98,0.06 1.39,-0.15 0.9,-0.46 0.79,-1.16 0.79,-2.36 0,-1.04 0,-2.08 0,-3.12 0,-0.99 -0.04,-2.07 0.01,-3.05 0.37,-0.23 0.46,-0.13 1.11,-0.6 2.31,-1.7 2.12,-5.17 -0.03,-6.69 -0.15,-0.11 -0.33,-0.22 -0.52,-0.32l-0.44 -0.21c-0.11,-0.06 -0.03,-0.01 -0.12,-0.08l0.01 -14.43c0.11,-0.1 0.35,-0.18 0.48,-0.24 0.17,-0.08 0.25,-0.15 0.4,-0.25 0.76,-0.49 1.5,-1.39 1.72,-2.33 0.11,-0.47 0.17,-0.61 0.17,-1.19 0.01,-2.42 -1.37,-4.76 -3.42,-5.95 -1.59,-0.93 -2.22,-0.61 -2.33,-1.06 -0.27,-1.17 -0.79,-2.27 -1.58,-3.13 -1.62,-1.76 -3.28,-2.35 -5.7,-2.35l-21.52 0c-1.76,-0 -2.82,0.22 -4.24,1.13 -0.58,0.37 -1.01,0.78 -1.44,1.24 -0.69,0.76 -1.1,1.62 -1.44,2.62 -0.23,0.68 0.02,0.66 -0.57,0.79 -2.18,0.46 -4.25,2.38 -4.91,4.51 -0.4,1.3 -0.52,2.1 -0.2,3.43 0.25,1.03 1.23,2.12 2.15,2.55 0.18,0.08 0.3,0.11 0.45,0.22l-0.01 14.43 -0.29 0.16c-2.43,1.08 -3.26,4.17 -1.62,6.33 0.64,0.85 1.07,1.03 1.92,1.42 0.06,1.27 0.01,2.65 0.01,3.93l0 2.95c0,0.16 -0,0.33 0,0.49 0.01,0.21 0.05,0.26 0.06,0.38z"/>
  <path class="fil1" d="M26.13 22.43c-0.01,0.01 -0.02,0.02 -0.03,0.02 -0.01,0 -0.02,0.01 -0.03,0.02 -0.01,0.01 -0.05,0.03 -0.06,0.03 -0.56,0.29 -0.41,0.38 -0.62,0.48 0.03,0.09 0.06,0.08 -0.04,0.05 -0.01,0.13 -0.11,0.3 -0.15,0.46 -0.07,0.28 -0.03,1.06 -0.04,1.41l-0.04 0.23 -0.33 0.1c-0.18,0.05 -0.21,0.09 -0.36,0.09 -0.03,0.06 0,0.03 -0.07,0.1 -0.42,0.41 -0.07,-0.03 -0.46,0.55 -0.03,0.05 -0.05,0.05 -0.07,0.07 0.04,0.34 -0.14,0.46 0.03,0.97l0.46 0.64c0.07,0.02 0.09,0.02 0.16,0.05 0.18,0.1 0.07,0.03 0.14,0.12 0.14,0.01 0.21,0.06 0.32,0.08l13.81 0.01c0.7,0 0.98,-0.03 1.36,-0.39 0.85,-0.81 0.4,-2.16 -0.76,-2.37 -0.32,-0.06 -0.21,-0.06 -0.21,-1.15 0,-0.67 -0.11,-0.97 -0.47,-1.3 -0.66,-0.59 -1.92,-0.46 -2.26,0.69 -0.15,0.52 0.03,1.17 -0.07,1.73 -0.73,0.07 -1.73,0.01 -2.49,0.01 -0.31,0 -0.29,0.01 -0.28,-0.29 0.01,-0.82 0.06,-1.08 -0.16,-1.78 -0.07,-0.04 -0.12,-0.02 -0.1,-0.14 -0.08,-0.03 -0.01,0.02 -0.11,-0.07 -0.03,-0.03 -0.04,-0.05 -0.08,-0.09 -0.66,-0.65 -1.53,-0.21 -1.65,-0.19 0.03,0.09 0.04,0.07 -0.05,0.04l-0.1 0.13c-0.86,0.77 -0.3,1.8 -0.52,2.38 -0.15,0.12 -1.98,0.06 -2.22,0.06 -0.12,0 -0.23,0 -0.35,0 -0.41,0 -0.28,-0.02 -0.31,-0.08l-0.04 -0.17c-0.04,-0.96 0.2,-1.56 -0.52,-2.22 -0.09,-0.09 -0.05,-0.05 -0.08,-0.1 -0.1,0.04 -0.07,0.05 -0.07,-0.07l0.04 0.01 -0.31 -0.13c-0.16,0.01 -0.24,-0.05 -0.43,-0.05 -0.19,0 -0.22,0.05 -0.4,0.04z"/>
 </g>
</svg>
