<?xml version="1.0" encoding="UTF-8"?>
<!DOCTYPE svg PUBLIC "-//W3C//DTD SVG 1.1//EN" "http://www.w3.org/Graphics/SVG/1.1/DTD/svg11.dtd">
<!-- Creator: CorelDRAW -->
<svg xmlns="http://www.w3.org/2000/svg" xml:space="preserve" width="17.4007mm" height="17.9027mm" version="1.1" style="shape-rendering:geometricPrecision; text-rendering:geometricPrecision; image-rendering:optimizeQuality; fill-rule:evenodd; clip-rule:evenodd"
viewBox="0 0 39.39 40.52"
 xmlns:xlink="http://www.w3.org/1999/xlink"
 xmlns:xodm="http://www.corel.com/coreldraw/odm/2003">
 <defs>
  <style type="text/css">
   <![CDATA[
    .fil0 {fill:#38B6FF}
    .fil2 {fill:#616161}
    .fil1 {fill:white}
   ]]>
  </style>
 </defs>
 <g id="Camada_x0020_1_0">
  <metadata id="CorelCorpID_0Corel-Layer"/>
  <g id="_2362837594176">
   <path class="fil0" d="M7.26 8.82c-0.18,-1.43 0.1,-2.61 0.7,-3.81 0.17,-0.33 0.29,-0.56 0.59,-0.93 2.57,-3.12 7.03,-2.92 8.96,-1.01 1.03,1.02 2.17,2.26 2.32,4.03 0.46,5.65 -5.05,9.42 -10.31,5.76 -1.19,-0.82 -2.07,-2.57 -2.25,-4.03zm13.54 2.72c2.31,0.65 2.7,5.62 2.88,7.74 -2.61,-0.68 -2.53,-1.53 -6.24,-1.09 -1.15,0.14 -2.11,0.67 -3.17,0.58 -2.1,-0.18 -5.25,-3.65 -12.04,0.13 -0.64,0.36 -2.21,1.02 -1.78,2.03 0.54,1.28 2.31,-0.43 3.14,-0.88 0.27,-0.15 0.5,-0.24 0.79,-0.36 1.1,-0.46 2.33,-0.78 3.55,-0.85l2.09 0.18c1.18,0.22 2.26,0.75 3.16,1.33 -0.81,1.36 -3.94,1.39 -2.95,3.25 2.24,0.39 4.25,-2.54 5.88,-3.38 3.34,-1.73 7.89,0.54 10.04,3.82 1.31,2 2.64,0.56 0.93,-1.52l-0.58 -0.73c-1,-1.41 -1.15,-3.05 -1.36,-4.81 -0.05,-0.38 -0.16,-0.91 -0.24,-1.32 -0.18,-0.89 -0.38,-1.6 -0.67,-2.4 -0.53,-1.46 -1.16,-2.86 -2.88,-3.31 0.16,-1.57 0.15,-2.31 -0.01,-3.92 0.99,0.12 0.72,0.37 1.34,1.12 0.38,0.45 0.84,0.91 1.43,1.22 0.69,0.37 1.19,0.56 1.82,0.95 2.8,1.76 4.89,3.8 6.84,6.53 1.11,1.55 5.75,8.61 4.58,10.66 -0.38,0.68 -0.67,0.97 -1.3,1.39 -0.54,0.36 -0.95,0.71 -1.7,1.01 -1.29,0.51 -2.51,0.89 -3.64,1.52 -3.96,2.2 -8.18,3.59 -12.99,2.77 -3.25,-0.55 -6.23,-3.34 -7.36,0.34 -0.72,2.33 -1,3.79 -2.99,5.08 -0.81,0.52 -1.42,0.5 -0.91,1.6 0.06,0.04 0.02,0.21 0.52,0.27 0.63,0.07 1.23,-0.5 1.75,-0.86l0.22 -0.17c0.03,-0.03 0.08,-0.06 0.11,-0.09 1.17,-0.93 2.05,-2.2 2.47,-3.68 0.02,-0.06 0.06,-0.26 0.08,-0.33 0.05,-0.22 0.08,-0.37 0.14,-0.62 0.12,-0.47 0.28,-0.96 0.37,-1.41 2.3,0.05 5.95,3.29 14.27,0.88 1,-0.29 9.22,-4.01 10.62,-4.95l0.65 -0.51c0.04,-0.04 0.15,-0.16 0.19,-0.21 0.02,-0.02 0.18,-0.23 0.26,-0.32 0.87,-0.97 1.57,-2.32 1.14,-3.66 -1.16,-3.56 -3.04,-6.67 -5.13,-9.67 -0.11,-0.15 -0.16,-0.2 -0.26,-0.33l-1.75 -2.05c-0.02,-0.03 -0.05,-0.07 -0.07,-0.1 -2.56,-3.24 -7.32,-5.47 -7.86,-5.99 -0.31,-0.3 -0.59,-0.8 -0.98,-1.19 -1.29,-1.34 -1.6,-0.67 -2.68,-1.34 -0.66,-0.41 -2.87,-4.78 -8.41,-3.76 -2.22,0.41 -4.01,1.67 -5.13,3.32 -5.64,8.27 5.81,17 12.43,9.93 0.54,-0.57 0.78,-1.32 1.38,-1.86z"/>
   <path class="fil1" d="M12.86 5.05c3.82,-0.79 5.29,4.79 1.53,5.82 -1.66,0.45 -3.31,-0.41 -3.75,-2.07 -0.51,-1.91 1.02,-3.5 2.23,-3.75zm-0.09 -1.66c-2.45,0.48 -4.41,2.79 -3.81,5.6 0.56,2.61 3.97,5.27 7.49,2.62 3.74,-2.81 1.12,-9.15 -3.68,-8.22z"/>
   <path class="fil0" d="M0.22 35.85l0.07 1.04c0.49,0.35 0.53,0.6 1.12,0.22l0.33 -0.36c0.33,-2.54 1.02,-4.62 2.39,-6.15 2.23,-2.49 1.56,-1.58 3.51,-2.87 1.41,-0.94 0.62,-2.27 -0.92,-1.47 -3.09,1.62 -6.54,5.77 -6.5,9.58z"/>
   <path class="fil0" d="M9.1 28.62c0.02,1.98 3.5,2.3 6.66,-0.03 1.07,-0.79 2.02,-0.56 2.83,-0.64l0.16 -1.15c-2.98,-1.96 -4.23,2.06 -7.35,1.74 -1.3,-0.13 -1.33,-1 -2.3,0.08z"/>
   <path class="fil0" d="M32.46 21.26c-0.44,1.57 1.11,1.87 0.42,3.67 -0.52,1.36 -1.48,1.45 -2.66,2.3l0.03 1.14c1.77,0.48 3.74,-1.87 4.13,-2.7 0.69,-1.5 -0.17,-5.7 -1.91,-4.41z"/>
   <path class="fil2" d="M1.74 36.75l-0.33 0.36c-0.59,0.38 -0.63,0.13 -1.12,-0.22l-0.07 -1.04 -0.22 0.84c0.26,0.33 0.47,0.68 0.83,0.75 0.7,0.13 0.77,-0.35 0.9,-0.69z"/>
  </g>
 </g>
</svg>
