<?xml version="1.0" encoding="UTF-8"?>
<!DOCTYPE svg PUBLIC "-//W3C//DTD SVG 1.1//EN" "http://www.w3.org/Graphics/SVG/1.1/DTD/svg11.dtd">
<!-- Creator: CorelDRAW -->
<svg xmlns="http://www.w3.org/2000/svg" xml:space="preserve" width="19.5899mm" height="19.5849mm" version="1.1" style="shape-rendering:geometricPrecision; text-rendering:geometricPrecision; image-rendering:optimizeQuality; fill-rule:evenodd; clip-rule:evenodd"
viewBox="0 0 67.28 67.26"
 xmlns:xlink="http://www.w3.org/1999/xlink"
 xmlns:xodm="http://www.corel.com/coreldraw/odm/2003">
 <defs>
  <style type="text/css">
   <![CDATA[
    .fil0 {fill:#38B6FF}
    .fil1 {fill:white}
   ]]>
  </style>
 </defs>
 <g id="Camada_x0020_1">
  <metadata id="CorelCorpID_0Corel-Layer"/>
  <path class="fil0" d="M31.24 8.54c0,1.04 -0.11,2.95 0.01,3.89 0.34,2.55 4.29,2.59 4.76,0.13 0.15,-0.76 0.03,-3.1 0.03,-4.02 3.14,0.26 6.44,1.34 8.76,2.5 2.16,1.08 4.15,2.39 5.84,4.07l1.43 1.42c0.88,1 0.97,0.95 1.93,2.28 0.79,1.1 1.56,2.33 2.17,3.54 1.15,2.29 2.29,5.7 2.55,8.86 -1.04,0 -2.95,-0.11 -3.89,0.01 -2.55,0.34 -2.59,4.29 -0.13,4.76 0.76,0.15 3.1,0.03 4.02,0.03 -0.43,5.16 -2.73,10.15 -5.9,13.93 -0.23,0.28 -0.42,0.43 -0.67,0.68 -0.29,0.29 -0.41,0.52 -0.71,0.8 -4.33,4 -9.07,6.75 -15.4,7.28 0,-1.04 0.11,-2.95 -0.01,-3.89 -0.34,-2.55 -4.29,-2.59 -4.76,-0.13 -0.15,0.76 -0.03,3.1 -0.03,4.02 -5.16,-0.43 -10.15,-2.73 -13.93,-5.9l-1.48 -1.38c-4,-4.33 -6.75,-9.07 -7.28,-15.4 1.04,0 2.95,0.11 3.89,-0.01 2.55,-0.34 2.59,-4.29 0.13,-4.76 -0.76,-0.15 -3.1,-0.03 -4.02,-0.03 0.43,-5.16 2.73,-10.15 5.9,-13.93 1.09,-1.29 3.01,-3.05 4.38,-4.04 1.1,-0.79 2.33,-1.56 3.54,-2.17 2.3,-1.15 5.7,-2.29 8.86,-2.55zm-31.24 24.78c0,1.46 0.73,2.54 1.97,2.69 3.86,0.49 -0.14,-1.03 3.78,8.83 1.26,3.18 2.62,5.29 4.63,7.83 0.39,0.49 0.54,0.66 1,1.11 0.21,0.21 0.33,0.32 0.51,0.54 1.04,1.31 0.68,0.64 1.52,1.48 0.43,0.44 0.59,0.61 1.1,1.01 4.33,3.36 8.72,5.64 14.38,6.5 0.56,0.09 1.45,0.1 1.91,0.2 0.77,0.16 0.39,0.75 0.45,1.65 0.2,2.72 4.46,2.8 4.79,0.14 0.3,-2.42 -0.61,-1.56 2.24,-1.96 4.21,-0.6 8.61,-2.39 12.01,-4.66 0.92,-0.61 2.74,-1.99 3.52,-2.79 0.45,-0.46 0.71,-0.57 1.13,-0.97 0.76,-0.71 3.12,-3.7 3.7,-4.56 2.32,-3.49 4.05,-7.68 4.7,-11.97 0.09,-0.56 0.1,-1.45 0.2,-1.91 0.16,-0.77 0.75,-0.39 1.65,-0.45 2.72,-0.2 2.8,-4.46 0.14,-4.79 -3.86,-0.49 0.14,1.03 -3.78,-8.83 -1.2,-3.01 -3.35,-6.65 -5.63,-8.94 -0.43,-0.43 -0.54,-0.74 -0.97,-1.13 -0.4,-0.37 -0.64,-0.47 -1.06,-0.89 -3.73,-3.76 -10.17,-6.73 -15.48,-7.51 -3.07,-0.45 -2.21,0.21 -2.36,-1.85 -0.2,-2.72 -4.46,-2.8 -4.79,-0.14 -0.3,2.42 0.61,1.56 -2.24,1.96 -2.31,0.33 -4.62,1.04 -6.59,1.82 -3.19,1.27 -5.27,2.61 -7.83,4.63l-4.14 4.12c-3.37,4.33 -5.63,8.71 -6.5,14.38 -0.47,3.05 0.27,2.21 -1.84,2.36 -0.97,0.07 -2.1,1.1 -2.1,2.1z"/>
  <path class="fil1" d="M27.64 27.17c0,2.5 0.79,4.37 2.91,5.65 0.29,0.18 0.57,0.32 0.9,0.45l0.89 0.31c0.02,0.01 0.07,0.03 0.1,0.05 -2.43,0 -3.51,-0.25 -5.08,0.78 -1.03,0.67 -2.13,2.07 -2.13,3.73l0 7.51 16.82 0 0 -7.66c0,-1.49 -1.18,-2.96 -2.13,-3.58 -1.57,-1.03 -2.65,-0.78 -5.08,-0.78 0.6,-0.38 1.36,-0.08 3.19,-1.91 3.54,-3.54 0.88,-10.1 -3.95,-10.1l-0.9 0c-2.77,0 -5.56,2.79 -5.56,5.56z"/>
  <path class="fil1" d="M42.06 27.62c0,0.64 -0.28,1.94 -0.43,2.42 -0.34,1.08 -0.45,1.19 -0.92,2.08 2.72,1.82 3.76,3.51 3.76,7.51l2.7 0 0 -5.71c0,-1.13 -0.81,-2.21 -1.53,-2.68 -1.25,-0.81 -1.82,-0.62 -3.73,-0.62l1.23 -0.57c3.96,-2.13 2.21,-8.44 -1.83,-8.44 -2.9,0 -1.2,0.01 -0.13,2.38 0.36,0.8 0.88,2.45 0.88,3.63z"/>
  <path class="fil1" d="M21.93 25.67c0,1.43 0.04,2.33 1.16,3.5 1.3,1.35 1.68,1.03 2.29,1.46 -1.8,0 -2.44,-0.18 -3.64,0.57 -0.78,0.48 -1.62,1.55 -1.62,2.74l0 5.71 2.7 0c0,-3.71 0.87,-5.58 3.76,-7.51 -0.46,-0.86 -0.54,-0.91 -0.89,-1.97 -0.84,-2.59 -0.38,-5.4 1.21,-7.48 0.84,-1.1 1.26,-1.07 -0.92,-1.07 -1.94,0 -4.06,2.12 -4.06,4.06z"/>
 </g>
</svg>
