<?xml version="1.0" encoding="UTF-8"?>
<!DOCTYPE svg PUBLIC "-//W3C//DTD SVG 1.1//EN" "http://www.w3.org/Graphics/SVG/1.1/DTD/svg11.dtd">
<!-- Creator: CorelDRAW -->
<svg xmlns="http://www.w3.org/2000/svg" xml:space="preserve" width="17.9028mm" height="17.5481mm" version="1.1" style="shape-rendering:geometricPrecision; text-rendering:geometricPrecision; image-rendering:optimizeQuality; fill-rule:evenodd; clip-rule:evenodd"
viewBox="0 0 37.79 37.04"
 xmlns:xlink="http://www.w3.org/1999/xlink"
 xmlns:xodm="http://www.corel.com/coreldraw/odm/2003">
 <defs>
  <style type="text/css">
   <![CDATA[
    .fil0 {fill:#38B6FF}
    .fil1 {fill:white}
   ]]>
  </style>
 </defs>
 <g id="Camada_x0020_1_0">
  <metadata id="CorelCorpID_0Corel-Layer"/>
  <g id="_2537124288288">
   <path class="fil0" d="M4.33 34.12c-0.47,1.37 -2.64,0.68 -2.05,-0.81 0.48,-1.2 2.55,-0.65 2.05,0.81zm2.33 -3.75l4.19 -12.68c3.61,-0.29 1.13,2.95 3.4,5.16 2.39,2.33 5.26,-0.39 5.1,3.32 -0.75,0.28 -11.91,4.09 -12.69,4.2zm4.99 -15l1.13 -3.47c0.16,-0.48 0.2,-0.85 0.51,-1.11 1.67,1.8 4.58,4.59 6.45,6.46l6.3 6.31c0.23,0.33 0.04,-0.04 0.2,0.36l-4.61 1.51c-0.33,-0.86 -0.17,-2.09 -1.82,-3.12 -1.46,-0.91 -3.16,-0.2 -4,-1.03 -1.1,-1.08 0.45,-4.91 -3.62,-5.74 -0.09,-0.02 -0.19,-0.04 -0.28,-0.06 -0.03,-0.01 -0.06,-0.02 -0.09,-0.03l-0.18 -0.07zm6.29 -5.82c-0.09,0.19 -0.16,0.27 -0.27,0.43 -0.45,0.66 -0.69,0.73 -0.91,1.08 -0.54,-0.2 -2.84,-2.67 -3.61,-3.36 -1.27,-0.68 -1.6,0.88 -1.9,1.77 -0.34,1.02 -0.65,1.96 -1,3.01 -0.68,2.03 -1.34,4.02 -2.01,6.03 -1.32,3.97 -2.63,8.08 -4.01,12.02 -4.14,-0.59 -5.15,3.3 -3.44,5.44 0.71,0.88 2.55,1.46 4,0.73 1.17,-0.59 1.98,-1.8 1.76,-3.67l-0.14 -0.29 0.4 -0.08c0.64,-0.09 13.9,-4.59 14.9,-4.93 0.99,-0.33 7.01,-2.24 7.39,-2.54 1.26,-1.02 -1.24,-2.88 -2.59,-4.23 -0.43,-0.43 -1.04,-0.86 -1.24,-1.43 0.97,-0.9 2.31,-2.23 4.31,-1.42 0.83,0.34 1.22,1.14 2.07,1.05 0.94,-0.1 1.27,-1.22 0.58,-1.91 -1.78,-1.76 -4.57,-2.16 -6.94,-0.67 -0.74,0.47 -1.05,1.16 -1.69,1.45l-1.44 -1.42c0.36,-1.01 3.66,-2.73 2.24,-4.04 -0.92,-0.85 -1.72,0.2 -2.15,0.63 -0.41,0.41 -1.35,1.46 -1.78,1.69 -0.42,-0.35 -2.05,-1.91 -2.24,-2.32 0.36,-0.57 0.88,-0.87 1.32,-1.5 0.39,-0.55 0.69,-1.14 0.88,-1.92 0.64,-2.73 -1.11,-5.81 -2.56,-5.46 -0.74,0.18 -1.02,1.02 -0.59,1.72 0.67,1.09 1.67,1.59 0.65,4.14z"/>
   <path class="fil1" d="M31.79 3.31c-1.82,0.18 -2.9,1.35 -3.12,3.13 -1.7,0.18 -3.04,1.34 -3.13,3.13 -0.05,0.98 0.35,1.78 0.76,2.34 0.54,0.73 1.71,0.7 2.02,-0.21 0.37,-1.12 -0.87,-1.14 -0.51,-2.29 0.11,-0.36 0.44,-0.67 0.85,-0.73 0.65,-0.09 0.77,0.22 1.12,0.42 0.89,0.54 1.84,-0.15 1.72,-1.06 -0.08,-0.66 -1.18,-1.25 -0.32,-2.17 0.88,-0.95 1.56,0.22 2.26,0.28 0.94,0.08 1.53,-0.88 1,-1.71 -0.21,-0.33 -0.49,-0.5 -0.42,-1.09 0.05,-0.39 0.34,-0.77 0.69,-0.88 1.18,-0.41 1.28,0.97 2.45,0.46 1.46,-0.64 0.21,-2.88 -2.27,-2.74 -1.79,0.1 -2.81,1.42 -3.11,3.13z"/>
   <path class="fil1" d="M32.73 12.13c-0.34,0.44 -1.72,1.4 -0.74,2.36 0.94,0.92 1.94,-0.42 2.34,-0.75 0.43,0.33 1.36,1.66 2.34,0.75 1,-0.94 -0.43,-1.92 -0.73,-2.36 0.36,-0.42 1.63,-1.29 0.8,-2.28 -0.96,-1.14 -1.9,0.35 -2.41,0.64 -0.5,-0.29 -1.38,-1.72 -2.35,-0.7 -0.95,1.01 0.37,1.87 0.75,2.34z"/>
   <path class="fil1" d="M23.34 2.71c-2.28,1.84 -0.37,3.99 1.5,1.61 0.55,0.24 1.48,1.83 2.48,0.68 0.93,-1.07 -0.51,-1.77 -0.77,-2.35 0.4,-0.4 1.63,-1.27 0.78,-2.23 -1.03,-1.15 -1.9,0.42 -2.48,0.68 -0.33,-0.42 -1.39,-1.69 -2.28,-0.74 -0.89,0.95 0.39,1.96 0.78,2.35z"/>
   <path class="fil1" d="M34.13 20.27c-1.26,0.6 -0.4,2.52 1.01,1.93 1.15,-0.48 0.49,-2.64 -1.01,-1.93z"/>
   <path class="fil1" d="M14.64 0.66c-1.43,0.77 -0.42,2.45 0.84,2 1.34,-0.48 0.44,-2.68 -0.84,-2z"/>
  </g>
 </g>
</svg>
