<?xml version="1.0" encoding="UTF-8"?>
<!DOCTYPE svg PUBLIC "-//W3C//DTD SVG 1.1//EN" "http://www.w3.org/Graphics/SVG/1.1/DTD/svg11.dtd">
<!-- Creator: CorelDRAW -->
<svg xmlns="http://www.w3.org/2000/svg" xml:space="preserve" width="18.6309mm" height="18.6306mm" version="1.1" style="shape-rendering:geometricPrecision; text-rendering:geometricPrecision; image-rendering:optimizeQuality; fill-rule:evenodd; clip-rule:evenodd"
viewBox="0 0 66.67 66.67"
 xmlns:xlink="http://www.w3.org/1999/xlink"
 xmlns:xodm="http://www.corel.com/coreldraw/odm/2003">
 <defs>
  <style type="text/css">
   <![CDATA[
    .fil0 {fill:#38B6FF}
    .fil1 {fill:white}
   ]]>
  </style>
 </defs>
 <g id="Camada_x0020_1">
  <metadata id="CorelCorpID_0Corel-Layer"/>
  <path class="fil0" d="M50.6 25.43c-0.83,-0.02 -0.87,-0.19 -1.35,0.3 -0.62,0.63 -2.17,2.1 -2.52,2.6 0.23,0.88 0.61,1.61 0.84,2.58 3.21,13.4 -10.85,24.12 -22.81,17.97 -1.55,-0.8 -3.1,-1.94 -4.07,-2.91 -4.94,-4.99 -6.47,-13.33 -1.86,-20.38 2.81,-4.3 8.24,-7.22 13.88,-6.95 2.33,0.11 3.71,0.63 5.63,1.3 0.58,-0.42 1.83,-1.83 2.53,-2.48 0.55,-0.51 0.39,-0.48 0.35,-1.39 -1.62,-0.98 -4.75,-1.84 -6.99,-2.07 -2.92,-0.31 -5.65,-0.01 -8.31,0.8 -2.23,0.67 -4.51,1.85 -6.08,3.04 -5.7,4.3 -9.3,11.02 -8.47,18.96 1.64,15.72 19.65,24.02 32.78,14.7 7.92,-5.62 11.15,-17.03 6.44,-26.06z"/>
  <path class="fil1" d="M35.42 27.97c-2.14,-0.56 -3.61,-1.52 -6.84,0.07 -1.65,0.81 -3.19,2.55 -3.75,4.68 -2.15,8.21 8.81,12.9 13.38,6.07 0.61,-0.92 1.13,-2.13 1.23,-3.49 0.16,-2.07 -0.33,-2.47 -0.74,-4.06 1.12,-1.3 6.44,-6.48 8.19,-8.21 1.32,-1.31 0.97,-1.27 2.14,-1.21 1.86,0.09 4.64,0.32 6.42,0.21 0,-0 11.13,-10.99 11.21,-11.31l-10.29 -0.38 -0.43 -10.34c-0.38,0.11 -8.19,8.09 -9.16,9.08 -0.53,0.53 -0.99,0.98 -1.53,1.51 -0.82,0.81 -0.67,0.59 -0.58,2.5l0.16 4.32c0.03,0.67 0.15,0.96 -0.19,1.35l-9.23 9.2z"/>
  <path class="fil0" d="M61.24 21.42c-0.41,0.25 -3.46,3.29 -3.66,3.64 2.23,6.76 2.5,12.81 -0.18,19.62 -2.23,5.68 -6.3,10.1 -10.49,12.82 -11.96,7.78 -25.99,4.55 -34.17,-3.58 -13.61,-13.52 -9.38,-37.08 9.24,-44.67 5.38,-2.19 11.81,-2.5 17.5,-0.87 0.64,0.18 1.68,0.61 2.24,0.67 0.76,-0.92 3.13,-2.95 3.54,-3.64 -0.73,-0.2 -1.72,-0.69 -2.52,-0.98 -6.72,-2.43 -14.34,-2.42 -21,-0.16 -22.32,7.58 -29.2,36.19 -12.34,52.99 16.68,16.61 45.02,10.37 52.96,-12.25 1.96,-5.59 2.29,-12.39 0.71,-18.33 -0.74,-2.8 -1.32,-3.59 -1.83,-5.27z"/>
 </g>
</svg>
