<?xml version="1.0" encoding="UTF-8"?>
<!DOCTYPE svg PUBLIC "-//W3C//DTD SVG 1.1//EN" "http://www.w3.org/Graphics/SVG/1.1/DTD/svg11.dtd">
<!-- Creator: CorelDRAW -->
<svg xmlns="http://www.w3.org/2000/svg" xml:space="preserve" width="16.4968mm" height="17.9029mm" version="1.1" style="shape-rendering:geometricPrecision; text-rendering:geometricPrecision; image-rendering:optimizeQuality; fill-rule:evenodd; clip-rule:evenodd"
viewBox="0 0 43.76 47.49"
 xmlns:xlink="http://www.w3.org/1999/xlink"
 xmlns:xodm="http://www.corel.com/coreldraw/odm/2003">
 <defs>
  <style type="text/css">
   <![CDATA[
    .fil0 {fill:#38B6FF}
    .fil1 {fill:white}
   ]]>
  </style>
 </defs>
 <g id="Camada_x0020_1_0">
  <metadata id="CorelCorpID_0Corel-Layer"/>
  <path class="fil0" d="M18.98 41.58l5.8 -0c0.11,0.89 0.23,1.61 0.53,2.4 0.47,1.24 0.95,1.58 1.1,1.94l-9.06 0.01c0.18,-0.42 0.59,-0.62 1.08,-1.89 0.28,-0.73 0.5,-1.61 0.55,-2.46zm1.06 -4.2l3.66 0 0.02 2.63 -3.65 0 -0.02 -2.63zm-18.39 -3.88l40.47 -0.01c0.16,1 -0.19,1.58 -0.73,1.99 -0.64,0.49 -1.69,0.33 -2.55,0.33l-33.92 0c-0.83,0 -1.9,0.15 -2.51,-0.29 -0.55,-0.4 -0.92,-1.04 -0.76,-2.02zm22.67 -20c-0.22,0.47 -0.09,3.74 -0.09,4.51 0,1.85 0.09,13.11 -0.03,13.93l-1.54 0.03 -0.03 -9.9c-0.19,-0.79 -1.29,-0.8 -1.47,-0.02l-0.03 9.89 -1.56 0.03 -0.04 -18.25c-0.16,-0.83 -1.48,-0.89 -1.52,0.3 -0.03,0.95 0,1.98 0,2.94 0,0.83 0.29,2.35 -0.87,2.1 -0.47,-0.1 -0.44,-0.53 -0.43,-1.05 0.01,-1.57 -0.18,-6.37 0.2,-7.15 0.72,-1.47 2.88,-1.06 4.81,-1.06 1.01,0 2.01,0 3.02,-0 2.64,-0 2.3,1.98 2.3,3.62 0,0.98 0,1.96 0,2.94 0,0.72 0.24,2.43 -0.31,2.67 -1.18,0.5 -0.98,-1.06 -0.98,-1.84 0,-0.98 0,-1.96 0,-2.94 0,-1.46 -1.1,-1.31 -1.44,-0.74zm17.73 -2.53c0.26,0.09 0.13,16.5 0.13,18.35 0,0.76 0.07,1.91 -0.03,2.62l-16.39 0.02 -0.02 -11.38 0.25 0.08c1.1,-0.13 1.4,-0.01 2.06,-0.71 0.55,-0.58 0.58,-1.18 0.57,-2.16 -0,-1.81 -0,-3.62 0,-5.43 0.01,-4.78 -3.65,-4.12 -6.73,-4.12 -3.27,-0 -6.74,-0.63 -6.73,4.2 0,1.81 0,3.62 0,5.43 -0,1.05 0.05,1.52 0.61,2.12 0.62,0.66 0.99,0.53 2.01,0.67 0.02,-0.01 0.04,-0.05 0.05,-0.04l0.2 -0.04 0 11.36 -16.41 0.02c-0.1,-0.72 -0.01,-17.37 -0.03,-20.28l0.02 -0.45c0.04,-0.2 0.04,-0.12 0.07,-0.18 -0,-1.32 1.96,-1.48 2.06,-1.53 0.73,-0.38 0.63,-1.85 -1.21,-1.36 -1.03,0.27 -1.63,0.88 -2.04,1.58 -0.56,0.95 -0.44,1.86 -0.44,3.07l0 17.94c0,2.32 -0.45,4.61 1.28,5.92 0.92,0.69 1.47,0.71 2.83,0.71 1.23,-0 13.44,-0.07 14.31,0.02l-0.01 2.6c-1.43,0.11 -0.9,0.92 -1.15,2.24 -0.26,1.39 -0.86,2.46 -1.87,3.25 -0.42,0.33 -0.54,0.44 -1.25,0.43 -0.54,-0 -3.01,-0.06 -3.32,0.05 -0.36,0.12 -0.66,0.61 -0.42,1.11 0.22,0.46 0.65,0.4 1.26,0.4l20.35 0c0.64,0 1.08,0.04 1.28,-0.46 0.19,-0.48 -0.07,-0.93 -0.44,-1.05 -0.33,-0.11 -2.79,-0.05 -3.33,-0.05 -0.97,0.01 -1.61,-0.6 -2.12,-1.29 -2.07,-2.83 -0.07,-4.44 -2.16,-4.64l0.01 -2.6c0.79,-0.08 13.16,-0.02 14.3,-0.02 1.34,0 1.99,-0.06 2.87,-0.74 1.68,-1.29 1.24,-3.61 1.24,-5.89l0 -17.86c0,-1.21 0.12,-2.19 -0.43,-3.15 -0.39,-0.67 -1.02,-1.29 -1.99,-1.56 -1.96,-0.54 -1.9,0.95 -1.31,1.32 0.39,0.24 0.81,0.04 1.38,0.43 0.27,0.19 0.69,0.56 0.69,1.05z"/>
  <path class="fil1" d="M31.68 13.1c-0.7,0 -1.31,0.02 -1.33,0.76 -0.02,0.78 0.67,0.8 1.35,0.8 0.21,1.14 0.92,2.12 1.82,2.69 0.32,0.2 0.72,0.33 0.97,0.5l-0.4 3.11c-0.9,0.05 -2.95,0.35 -2.39,1.53 0.58,1.24 2.34,-1.06 4.66,0.77 0.41,0.32 1.1,0.54 1.38,-0.1 0.33,-0.73 -0.33,-1.07 -0.66,-1.29 -0.52,-0.35 -0.8,-0.41 -1.4,-0.7l0.38 -3.12c0.28,-0.12 0.71,-0.15 1.04,-0.27 0.37,-0.12 0.6,-0.23 0.91,-0.44 0.28,-0.18 0.54,-0.32 0.6,-0.7 0.06,-0.44 -0.16,-0.78 -0.49,-0.88 -0.77,-0.23 -0.82,0.48 -1.94,0.65 -0.87,0.13 -1.61,-0.18 -2.1,-0.6 -1.06,-0.92 -1.23,-2.52 -0.22,-3.68 0.97,-1.11 3.38,-1.25 4.25,0.71 0.2,0.46 0.15,0.65 0.23,1.15 0.2,1.23 2.53,0.83 1.14,-1.91 -1.05,-2.05 -3.4,-2.9 -5.45,-1.96 -0.67,0.31 -1.13,0.68 -1.5,1.14 -0.52,0.66 -0.57,1 -0.87,1.83z"/>
  <path class="fil1" d="M10.17 21.02l-0.49 -0.02 -0.06 -0.21c-0.03,-0.12 -0.02,-0.11 -0.03,-0.22l-0.35 -2.76c1.37,-0.34 2.53,-1.65 2.81,-3.15 0.73,0.01 1.31,0.01 1.35,-0.73 0.04,-0.8 -0.61,-0.84 -1.33,-0.84 -0.52,-1.57 -0.95,-2.3 -2.31,-2.95 -1.48,-0.71 -3.14,-0.42 -4.22,0.42 -1.03,0.79 -1.98,2.44 -1.64,3.56 0.21,0.7 1.28,0.69 1.48,-0.02 0.19,-0.64 -0.08,-1.07 0.75,-1.97 0.97,-1.06 2.65,-1.12 3.69,-0.08 1.07,1.08 0.94,2.77 -0.11,3.72 -1.82,1.64 -3.27,-0.19 -4.01,-0.03 -0.54,0.12 -1.64,1.53 1.99,2.28l0.43 3.16c-0.51,0.15 -0.95,0.37 -1.35,0.61 -0.4,0.25 -0.96,0.54 -0.79,1.24 0.13,0.52 0.78,0.7 1.25,0.36 2.67,-1.94 3.78,0.04 4.63,-0.65 0.68,-0.56 0.14,-1.63 -1.68,-1.73z"/>
  <path class="fil1" d="M10.44 29.4c-0.86,0.23 -1.73,0.1 -2.42,-0.24 -2.14,-1.05 -1.87,-3.04 -2.03,-3.47 -0.26,-0.66 -1.46,-0.64 -1.49,0.39 -0.03,0.76 0.24,1.63 0.54,2.22 2.38,4.54 8.88,3.12 9.51,-1.5 0.93,0 2.19,0.23 2.17,-0.81 -0.02,-1 -1.29,-0.75 -2.14,-0.77 -0.21,-0.64 -0.39,-1.58 -0.81,-1.97 -0.57,-0.53 -1.65,-0 -1.21,0.98 0.34,0.75 0.59,1.22 0.46,2.24 -0.19,1.4 -1.24,2.56 -2.57,2.92z"/>
  <path class="fil1" d="M29.22 26.8c0.43,2.74 3.26,5.11 6.6,4.01 2.13,-0.7 3.67,-3.04 3.44,-4.88 -0.11,-0.88 -1.28,-0.92 -1.5,-0.19 -0.17,0.54 0.05,2.46 -2.12,3.46 -2.07,0.96 -4.68,-0.39 -4.9,-2.86 -0.1,-1.09 0.19,-1.38 0.5,-2.15 0.35,-0.86 -0.69,-1.51 -1.27,-0.89 -0.39,0.42 -0.59,1.27 -0.77,1.93 -0.87,-0 -2.19,-0.23 -2.15,0.84 0.04,0.95 1.26,0.74 2.17,0.73z"/>
  <path class="fil0" d="M19.86 4.22c-0.52,-2.98 3.54,-3.67 4.03,-0.88 0.22,1.28 -0.6,2.39 -1.58,2.61 -1.26,0.28 -2.28,-0.71 -2.45,-1.72zm1.43 -4.16c-1.81,0.32 -3.35,2.1 -2.99,4.35 0.3,1.82 1.98,3.52 4.21,3.1 1.79,-0.34 3.28,-2.16 2.92,-4.36 -0.29,-1.81 -1.99,-3.46 -4.15,-3.08z"/>
 </g>
</svg>
