<?xml version="1.0" encoding="UTF-8"?>
<!DOCTYPE svg PUBLIC "-//W3C//DTD SVG 1.1//EN" "http://www.w3.org/Graphics/SVG/1.1/DTD/svg11.dtd">
<!-- Creator: CorelDRAW -->
<svg xmlns="http://www.w3.org/2000/svg" xml:space="preserve" width="5.08mm" height="5.08mm" version="1.1" style="shape-rendering:geometricPrecision; text-rendering:geometricPrecision; image-rendering:optimizeQuality; fill-rule:evenodd; clip-rule:evenodd"
viewBox="0 0 4.57 4.57"
 xmlns:xlink="http://www.w3.org/1999/xlink"
 xmlns:xodm="http://www.corel.com/coreldraw/odm/2003">
 <defs>
  <style type="text/css">
   <![CDATA[
    .fil0 {fill:black}
    .fil1 {fill:white}
    .fil2 {fill:white;fill-rule:nonzero}
   ]]>
  </style>
 </defs>
 <g id="Camada_x0020_1">
  <metadata id="CorelCorpID_0Corel-Layer"/>
  <rect class="fil0" x="-0" width="4.57" height="4.57"/>
 </g>
 <g id="Camada_x0020_1_0">
  <metadata id="CorelCorpID_1Corel-Layer"/>
  <g id="_1671071990432">
   <path class="fil1" d="M0.18 1.37c0.04,0.08 0.59,0.12 0.9,0.58 0.4,0.45 -0.51,1.04 -0.53,0.72 -0.07,0.06 -0.13,0.2 -0.07,0.29 0.15,0.23 0.65,-0.07 0.86,-0.29 -0.06,0.4 -0.51,1.07 -1.11,0.82 0.1,0.14 0.4,0.36 0.75,0.29 0.25,-0.06 0.57,-0.35 0.64,-0.56 -0.06,0.07 -0.12,0.15 -0.2,0.23 -0.19,0.19 -0.5,0.31 -0.72,0.26 0.14,-0.02 0.4,-0.11 0.6,-0.37 0.32,-0.42 0.44,-1.38 0.76,-2.05 0.05,-0.11 0.1,-0.21 0.14,-0.33 0.07,-0.21 0.03,-0.24 -0.16,-0.15 -0.33,0.17 -0.33,0.33 -0.42,0.52 -0.12,0.27 -0.42,0.13 -0.66,0.06 -0.14,-0.04 -0.69,-0.16 -0.78,-0.02zm0.82 1.78c-0.18,0.02 -0.37,0.12 -0.55,0.02 -0.32,-0.18 -0.11,-0.76 0.31,-0.95 0.07,-0.03 0.18,-0.04 0.24,-0.08 -0.62,-0.29 -1.12,0.71 -0.9,1.1 0.23,0.4 0.82,0.03 0.9,-0.09zm-1 -0.44c0.03,-0.05 0.03,-0.09 0.06,-0.15 0.07,-0.18 0.15,-0.26 0.28,-0.38 0.27,-0.27 0.5,-0.15 0.64,-0.14 -0.03,-0.1 -0.19,-0.24 -0.28,-0.29 -0.4,-0.22 -0.74,0.4 -0.7,0.96zm1.25 -1.77c-0.3,0.09 -0.2,0.52 0.12,0.46 0.3,-0.06 0.2,-0.55 -0.12,-0.46z"/>
   <path class="fil2" d="M2.46 1.17l0 0.39 -0.07 0 0 -0.32 -0.05 0.02 0 -0.07 0.05 -0.03 0.07 0zm0.13 0.16c-0.02,0 -0.04,-0.01 -0.05,-0.02 -0.01,-0.01 -0.02,-0.03 -0.02,-0.06 0,-0.03 0.01,-0.05 0.02,-0.06 0.01,-0.01 0.03,-0.02 0.05,-0.02 0.02,0 0.04,0.01 0.05,0.02 0.01,0.01 0.02,0.03 0.02,0.06 0,0.03 -0.01,0.05 -0.02,0.06 -0.01,0.01 -0.03,0.02 -0.05,0.02zm-0 -0.05c0.01,0 0.01,-0 0.01,-0.01 0,-0 0,-0.01 0,-0.02 0,-0.01 -0,-0.02 -0,-0.02 -0,-0 -0.01,-0.01 -0.01,-0.01 -0.01,0 -0.01,0 -0.01,0.01 -0,0 -0,0.01 -0,0.02 0,0.01 0,0.02 0,0.02 0,0 0.01,0.01 0.01,0.01zm-0.4 0.88c-0.02,0 -0.04,-0 -0.05,-0.01 -0.01,-0.01 -0.02,-0.02 -0.03,-0.03 -0.01,-0.01 -0.01,-0.03 -0.01,-0.05l0 -0.2c0,-0.02 0,-0.04 0.01,-0.05 0.01,-0.01 0.02,-0.03 0.03,-0.03 0.01,-0.01 0.03,-0.01 0.05,-0.01 0.02,0 0.04,0 0.05,0.01 0.01,0.01 0.02,0.02 0.03,0.03 0.01,0.01 0.01,0.03 0.01,0.05l0 0.03 -0.07 0 0 -0.03c0,-0.01 -0,-0.01 -0,-0.02 -0,-0 -0.01,-0.01 -0.01,-0.01 -0,-0 -0.01,-0 -0.01,-0 -0.01,0 -0.01,0 -0.02,0.01 -0,0.01 -0.01,0.01 -0.01,0.02l0 0.2c0,0.01 0,0.02 0.01,0.02 0,0.01 0.01,0.01 0.02,0.01 0.01,0 0.02,-0 0.02,-0.01 0,-0.01 0.01,-0.01 0.01,-0.02l0 -0.03 0.07 0 0 0.03c0,0.02 -0,0.04 -0.01,0.05 -0.01,0.01 -0.02,0.03 -0.03,0.03 -0.01,0.01 -0.03,0.01 -0.05,0.01zm0.26 0c-0.02,0 -0.04,-0 -0.05,-0.01 -0.02,-0.01 -0.03,-0.02 -0.03,-0.03 -0.01,-0.01 -0.01,-0.03 -0.01,-0.05l0 -0.22c0,-0.02 0,-0.04 0.01,-0.05 0.01,-0.01 0.02,-0.02 0.03,-0.03 0.02,-0.01 0.03,-0.01 0.05,-0.01 0.02,0 0.04,0 0.05,0.01 0.02,0.01 0.03,0.02 0.03,0.03 0.01,0.01 0.01,0.03 0.01,0.05l0 0.22c0,0.02 -0,0.04 -0.01,0.05 -0.01,0.01 -0.02,0.02 -0.03,0.03 -0.02,0.01 -0.03,0.01 -0.05,0.01zm0 -0.07c0.01,0 0.02,-0 0.02,-0.01 0.01,-0.01 0.01,-0.01 0.01,-0.03l0 -0.2c0,-0.01 -0,-0.02 -0.01,-0.02 -0.01,-0.01 -0.01,-0.01 -0.02,-0.01 -0.01,0 -0.02,0 -0.02,0.01 -0.01,0.01 -0.01,0.01 -0.01,0.02l0 0.2c0,0.01 0,0.02 0.01,0.03 0.01,0.01 0.01,0.01 0.02,0.01zm0.17 0.06l0 -0.39 0.05 0 0.09 0.26 -0.01 0.01 0 -0.27 0.06 0 0 0.39 -0.05 0 -0.09 -0.25 0.01 -0.01 0 0.26 -0.06 0zm0.38 -0.21l0.1 0 0 0.12c0,0.02 -0,0.04 -0.01,0.05 -0.01,0.01 -0.02,0.03 -0.03,0.03 -0.01,0.01 -0.03,0.01 -0.05,0.01 -0.02,0 -0.04,-0 -0.05,-0.01 -0.01,-0.01 -0.03,-0.02 -0.03,-0.03 -0.01,-0.01 -0.01,-0.03 -0.01,-0.05l0 -0.2c0,-0.02 0,-0.04 0.01,-0.05 0.01,-0.02 0.02,-0.03 0.03,-0.03 0.01,-0.01 0.03,-0.01 0.05,-0.01 0.02,0 0.04,0 0.05,0.01 0.01,0.01 0.03,0.02 0.03,0.03 0.01,0.01 0.01,0.03 0.01,0.05l0 0.03 -0.07 0 0 -0.03c0,-0.01 -0,-0.02 -0.01,-0.02 -0,-0.01 -0.01,-0.01 -0.02,-0.01 -0.01,0 -0.02,0 -0.02,0.01 -0.01,0.01 -0.01,0.01 -0.01,0.02l0 0.2c0,0.01 0,0.02 0.01,0.02 0.01,0 0.01,0.01 0.02,0.01 0.01,0 0.02,-0 0.02,-0.01 0.01,-0.01 0.01,-0.01 0.01,-0.02l0 -0.05 -0.03 0 0 -0.06zm0.2 0.05l0 -0.06 0.07 0c0.01,0 0.02,-0 0.02,-0.01 0,-0 0.01,-0.01 0.01,-0.02l0 -0.04c0,-0.01 -0,-0.02 -0.01,-0.02 -0,-0.01 -0.01,-0.01 -0.02,-0.01l-0.07 0 0 -0.06 0.07 0c0.02,0 0.04,0 0.05,0.01 0.02,0.01 0.03,0.02 0.03,0.03 0.01,0.01 0.01,0.03 0.01,0.05l0 0.05c0,0.02 -0,0.04 -0.01,0.05 -0.01,0.01 -0.02,0.02 -0.03,0.03 -0.02,0.01 -0.03,0.01 -0.05,0.01l-0.07 0zm-0.03 0.17l0 -0.39 0.07 0 0 0.39 -0.07 0zm0.14 0l-0.05 -0.18 0.06 -0.01 0.06 0.19 -0.07 0zm0.14 0l0 -0.39 0.07 0 0 0.39 -0.07 0zm0.03 0l0 -0.07 0.15 0 0 0.07 -0.15 0zm0 -0.16l0 -0.07 0.13 0 0 0.07 -0.13 0zm0 -0.16l0 -0.07 0.15 0 0 0.07 -0.15 0zm0.3 0.33c-0.02,0 -0.04,-0 -0.05,-0.01 -0.01,-0.01 -0.03,-0.02 -0.03,-0.03 -0.01,-0.01 -0.01,-0.03 -0.01,-0.05l0 -0.02 0.07 -0 0 0.02c0,0.01 0,0.02 0.01,0.02 0.01,0.01 0.01,0.01 0.02,0.01 0.01,0 0.02,-0 0.02,-0.01 0.01,-0.01 0.01,-0.01 0.01,-0.02l0 -0.03c0,-0.01 -0,-0.01 -0.01,-0.02 -0,-0.01 -0.01,-0.01 -0.02,-0.01 -0.01,-0 -0.02,-0.01 -0.03,-0.01 -0.01,-0 -0.02,-0.01 -0.03,-0.02 -0.01,-0.01 -0.02,-0.01 -0.03,-0.02 -0.01,-0.01 -0.01,-0.02 -0.02,-0.03 -0,-0.01 -0.01,-0.02 -0.01,-0.04l0 -0.02c0,-0.03 0.01,-0.05 0.03,-0.07 0.02,-0.02 0.04,-0.03 0.07,-0.03 0.03,0 0.05,0.01 0.07,0.03 0.02,0.02 0.03,0.04 0.03,0.07l0 0.02 -0.07 0 0 -0.02c0,-0.01 -0,-0.02 -0.01,-0.02 -0.01,-0.01 -0.01,-0.01 -0.02,-0.01 -0.01,0 -0.02,0 -0.02,0.01 -0.01,0.01 -0.01,0.01 -0.01,0.02l0 0.03c0,0.01 0,0.02 0.01,0.02 0.01,0.01 0.01,0.01 0.02,0.02 0.01,0 0.02,0.01 0.03,0.01 0.01,0 0.02,0.01 0.03,0.01 0.01,0.01 0.02,0.01 0.02,0.02 0.01,0.01 0.01,0.02 0.02,0.03 0,0.01 0.01,0.02 0.01,0.04l0 0.03c0,0.03 -0.01,0.05 -0.03,0.07 -0.02,0.02 -0.04,0.03 -0.07,0.03zm0.26 0c-0.02,0 -0.04,-0 -0.05,-0.01 -0.01,-0.01 -0.03,-0.02 -0.03,-0.03 -0.01,-0.01 -0.01,-0.03 -0.01,-0.05l0 -0.02 0.07 -0 0 0.02c0,0.01 0,0.02 0.01,0.02 0.01,0.01 0.01,0.01 0.02,0.01 0.01,0 0.02,-0 0.02,-0.01 0.01,-0.01 0.01,-0.01 0.01,-0.02l0 -0.03c0,-0.01 -0,-0.01 -0.01,-0.02 -0,-0.01 -0.01,-0.01 -0.02,-0.01 -0.01,-0 -0.02,-0.01 -0.03,-0.01 -0.01,-0 -0.02,-0.01 -0.03,-0.02 -0.01,-0.01 -0.02,-0.01 -0.02,-0.02 -0.01,-0.01 -0.01,-0.02 -0.02,-0.03 -0,-0.01 -0.01,-0.02 -0.01,-0.04l0 -0.02c0,-0.03 0.01,-0.05 0.03,-0.07 0.02,-0.02 0.04,-0.03 0.07,-0.03 0.03,0 0.05,0.01 0.07,0.03 0.02,0.02 0.03,0.04 0.03,0.07l0 0.02 -0.07 0 0 -0.02c0,-0.01 -0,-0.02 -0.01,-0.02 -0.01,-0.01 -0.01,-0.01 -0.02,-0.01 -0.01,0 -0.02,0 -0.02,0.01 -0.01,0.01 -0.01,0.01 -0.01,0.02l0 0.03c0,0.01 0,0.02 0.01,0.02 0.01,0.01 0.01,0.01 0.02,0.02 0.01,0 0.02,0.01 0.03,0.01 0.01,0 0.02,0.01 0.03,0.01 0.01,0.01 0.02,0.01 0.02,0.02 0.01,0.01 0.01,0.02 0.02,0.03 0,0.01 0.01,0.02 0.01,0.04l0 0.03c0,0.03 -0.01,0.05 -0.03,0.07 -0.02,0.02 -0.04,0.03 -0.07,0.03zm0.27 0c-0.02,0 -0.04,-0 -0.05,-0.01 -0.02,-0.01 -0.03,-0.02 -0.03,-0.03 -0.01,-0.01 -0.01,-0.03 -0.01,-0.05l0 -0.22c0,-0.02 0,-0.04 0.01,-0.05 0.01,-0.01 0.02,-0.02 0.03,-0.03 0.02,-0.01 0.03,-0.01 0.05,-0.01 0.02,0 0.04,0 0.05,0.01 0.02,0.01 0.03,0.02 0.03,0.03 0.01,0.01 0.01,0.03 0.01,0.05l0 0.22c0,0.02 -0,0.04 -0.01,0.05 -0.01,0.01 -0.02,0.02 -0.03,0.03 -0.02,0.01 -0.03,0.01 -0.05,0.01zm0 -0.07c0.01,0 0.02,-0 0.02,-0.01 0.01,-0.01 0.01,-0.01 0.01,-0.03l0 -0.2c0,-0.01 -0,-0.02 -0.01,-0.02 -0.01,-0.01 -0.01,-0.01 -0.02,-0.01 -0.01,0 -0.02,0 -0.02,0.01 -0.01,0.01 -0.01,0.01 -0.01,0.02l0 0.2c0,0.01 0,0.02 0.01,0.03 0.01,0.01 0.01,0.01 0.02,0.01zm-2.3 0.47l0.07 -0.21 0.06 0 0 0.39 -0.06 0 0 -0.27 0 0.02 -0.06 0.19 -0.03 0 -0.06 -0.18 0.01 -0.02 0 0.27 -0.06 0 0 -0.39 0.06 0 0.07 0.21zm0.21 0.18l0 -0.39 0.07 0 0 0.39 -0.07 0zm0.03 0l0 -0.07 0.15 0 0 0.07 -0.15 0zm0 -0.16l0 -0.06 0.13 0 0 0.06 -0.13 0zm0 -0.16l0 -0.07 0.15 0 0 0.07 -0.15 0zm0.25 0.33l0 -0.06 0.05 0c0.01,0 0.02,-0 0.02,-0.01 0,-0.01 0.01,-0.01 0.01,-0.02l0 -0.2c0,-0.01 -0,-0.02 -0.01,-0.02 -0,-0.01 -0.01,-0.01 -0.02,-0.01l-0.05 0 0 -0.06 0.06 0c0.03,0 0.05,0.01 0.07,0.02 0.02,0.02 0.02,0.04 0.02,0.06l0 0.22c0,0.02 -0,0.03 -0.01,0.05 -0.01,0.01 -0.02,0.02 -0.03,0.03 -0.01,0.01 -0.03,0.01 -0.05,0.01l-0.06 0zm-0.04 0l0 -0.39 0.07 0 0 0.39 -0.07 0zm0.31 0l0 -0.06 0.05 0c0.01,0 0.02,-0 0.02,-0.01 0,-0.01 0.01,-0.01 0.01,-0.02l0 -0.2c0,-0.01 -0,-0.02 -0.01,-0.02 -0,-0.01 -0.01,-0.01 -0.02,-0.01l-0.05 0 0 -0.06 0.06 0c0.03,0 0.05,0.01 0.07,0.02 0.02,0.02 0.02,0.04 0.02,0.06l0 0.22c0,0.02 -0,0.03 -0.01,0.05 -0.01,0.01 -0.02,0.02 -0.03,0.03 -0.01,0.01 -0.03,0.01 -0.05,0.01l-0.06 0zm-0.04 0l0 -0.39 0.07 0 0 0.39 -0.07 0zm-0.94 0.58l0 -0.04 0.08 0c0.01,0 0.02,-0 0.03,-0.01 0.01,-0.01 0.01,-0.01 0.01,-0.02l0 -0.07c0,-0.02 -0,-0.03 -0.01,-0.04 -0.01,-0.01 -0.02,-0.01 -0.03,-0.01l-0.07 0 0 -0.04 0.07 0c0.01,0 0.02,-0 0.03,-0.01 0.01,-0.01 0.01,-0.02 0.01,-0.03l0 -0.06c0,-0.01 -0,-0.02 -0.01,-0.02 -0.01,-0.01 -0.01,-0.01 -0.03,-0.01l-0.07 0 0 -0.04 0.07 0c0.02,0 0.04,0.01 0.06,0.02 0.01,0.01 0.02,0.03 0.02,0.05l0 0.05c0,0.02 -0,0.03 -0.01,0.05 -0.01,0.01 -0.02,0.02 -0.03,0.02 0.01,0 0.02,0.01 0.03,0.02 0.01,0.01 0.01,0.03 0.01,0.05l0 0.06c0,0.02 -0.01,0.04 -0.02,0.05 -0.01,0.01 -0.03,0.02 -0.05,0.02l-0.08 0zm-0.03 0l0 -0.39 0.04 0 0 0.39 -0.04 0zm0.29 -0.17l0 -0.04 0.07 0c0.02,0 0.03,-0 0.04,-0.01 0.01,-0.01 0.01,-0.02 0.01,-0.04l0 -0.04c0,-0.02 -0,-0.03 -0.01,-0.04 -0.01,-0.01 -0.02,-0.02 -0.04,-0.02l-0.07 0 0 -0.04 0.07 0c0.02,0 0.04,0 0.05,0.01 0.01,0.01 0.03,0.02 0.03,0.03 0.01,0.01 0.01,0.03 0.01,0.05l0 0.05c0,0.02 -0,0.04 -0.01,0.05 -0.01,0.01 -0.02,0.02 -0.03,0.03 -0.01,0.01 -0.03,0.01 -0.05,0.01l-0.07 0zm-0.02 0.17l0 -0.39 0.04 0 0 0.39 -0.04 0zm0.16 0l-0.05 -0.18 0.03 -0.01 0.06 0.19 -0.05 0zm0.09 0l0.09 -0.39 0.05 0 0.09 0.39 -0.04 0 -0.07 -0.35 -0.07 0.35 -0.04 0zm0.05 -0.1l0 -0.04 0.13 0 0 0.04 -0.13 0zm0.31 0.1c-0.02,0 -0.04,-0 -0.05,-0.01 -0.01,-0.01 -0.02,-0.02 -0.03,-0.03 -0.01,-0.01 -0.01,-0.03 -0.01,-0.05l0 -0.02 0.04 0 0 0.02c0,0.02 0,0.03 0.01,0.04 0.01,0.01 0.02,0.01 0.04,0.01 0.02,0 0.03,-0 0.04,-0.01 0.01,-0.01 0.01,-0.02 0.01,-0.04l0 -0.02c0,-0.01 -0,-0.03 -0.01,-0.03 -0.01,-0.01 -0.01,-0.02 -0.02,-0.02 -0.01,-0.01 -0.02,-0.01 -0.03,-0.02 -0.01,-0.01 -0.02,-0.01 -0.03,-0.02 -0.01,-0.01 -0.02,-0.01 -0.03,-0.02 -0.01,-0.01 -0.02,-0.02 -0.02,-0.03 -0.01,-0.01 -0.01,-0.02 -0.01,-0.04l0 -0.02c0,-0.03 0.01,-0.05 0.02,-0.07 0.02,-0.02 0.04,-0.02 0.07,-0.02 0.03,0 0.05,0.01 0.07,0.02 0.02,0.02 0.02,0.04 0.02,0.07l0 0.02 -0.04 0 0 -0.02c0,-0.02 -0,-0.03 -0.01,-0.04 -0.01,-0.01 -0.02,-0.01 -0.04,-0.01 -0.02,0 -0.03,0 -0.04,0.01 -0.01,0.01 -0.01,0.02 -0.01,0.04l0 0.02c0,0.01 0,0.03 0.01,0.03 0.01,0.01 0.02,0.02 0.03,0.02 0.01,0.01 0.02,0.01 0.04,0.02 0.01,0 0.02,0.01 0.03,0.02 0.01,0.01 0.02,0.01 0.02,0.02 0.01,0.01 0.01,0.02 0.02,0.03 0,0.01 0.01,0.02 0.01,0.04l0 0.02c0,0.03 -0.01,0.05 -0.02,0.07 -0.02,0.02 -0.04,0.02 -0.07,0.02zm0.21 -0.4l0 0.39 -0.04 0 0 -0.39 0.04 0zm0.09 0.39l0 -0.39 0.04 0 0 0.39 -0.04 0zm0.03 0l0 -0.04 0.14 0 0 0.04 -0.14 0z"/>
   <path class="fil2" d="M2.98 2.73l0 -0.39 0.07 0 0 0.39 -0.07 0zm0.03 -0.16l0 -0.06 0.13 0 0 0.06 -0.13 0zm0 -0.17l0 -0.06 0.15 0 0 0.06 -0.15 0zm0.27 -0.06l0 0.39 -0.07 0 0 -0.39 0.07 0zm0.13 0.39l0 -0.36 0.07 0 0 0.36 -0.07 0zm-0.07 -0.33l0 -0.06 0.2 0 0 0.06 -0.2 0zm0.26 0.33l0 -0.39 0.05 0 0.09 0.26 -0.01 0.01 0 -0.27 0.06 0 0 0.39 -0.05 0 -0.09 -0.25 0.01 -0.01 0 0.26 -0.06 0zm0.28 0l0 -0.39 0.07 0 0 0.39 -0.07 0zm0.03 0l0 -0.07 0.15 0 0 0.07 -0.15 0zm0 -0.16l0 -0.06 0.13 0 0 0.06 -0.13 0zm0 -0.16l0 -0.07 0.15 0 0 0.07 -0.15 0zm0.3 0.33c-0.02,0 -0.04,-0 -0.05,-0.01 -0.01,-0.01 -0.03,-0.02 -0.03,-0.03 -0.01,-0.01 -0.01,-0.03 -0.01,-0.05l0 -0.02 0.07 -0 0 0.02c0,0.01 0,0.02 0.01,0.02 0.01,0.01 0.01,0.01 0.02,0.01 0.01,0 0.02,-0 0.02,-0.01 0.01,-0.01 0.01,-0.01 0.01,-0.02l0 -0.03c0,-0.01 -0,-0.01 -0.01,-0.02 -0,-0.01 -0.01,-0.01 -0.02,-0.01 -0.01,-0 -0.02,-0.01 -0.03,-0.01 -0.01,-0 -0.02,-0.01 -0.03,-0.02 -0.01,-0.01 -0.02,-0.01 -0.03,-0.02 -0.01,-0.01 -0.01,-0.02 -0.02,-0.03 -0,-0.01 -0.01,-0.02 -0.01,-0.04l0 -0.02c0,-0.03 0.01,-0.05 0.03,-0.07 0.02,-0.02 0.04,-0.03 0.07,-0.03 0.03,0 0.05,0.01 0.07,0.03 0.02,0.02 0.03,0.04 0.03,0.07l0 0.02 -0.07 0 0 -0.02c0,-0.01 -0,-0.02 -0.01,-0.02 -0.01,-0.01 -0.01,-0.01 -0.02,-0.01 -0.01,0 -0.02,0 -0.02,0.01 -0.01,0.01 -0.01,0.01 -0.01,0.02l0 0.03c0,0.01 0,0.02 0.01,0.02 0.01,0.01 0.01,0.01 0.02,0.02 0.01,0 0.02,0.01 0.03,0.01 0.01,0 0.02,0.01 0.03,0.01 0.01,0 0.02,0.01 0.02,0.02 0.01,0.01 0.01,0.02 0.02,0.03 0,0.01 0.01,0.02 0.01,0.04l0 0.03c0,0.03 -0.01,0.05 -0.03,0.07 -0.02,0.02 -0.04,0.03 -0.07,0.03zm0.26 0c-0.02,0 -0.04,-0 -0.05,-0.01 -0.01,-0.01 -0.03,-0.02 -0.03,-0.03 -0.01,-0.01 -0.01,-0.03 -0.01,-0.05l0 -0.02 0.07 -0 0 0.02c0,0.01 0,0.02 0.01,0.02 0.01,0.01 0.01,0.01 0.02,0.01 0.01,0 0.02,-0 0.02,-0.01 0.01,-0.01 0.01,-0.01 0.01,-0.02l0 -0.03c0,-0.01 -0,-0.01 -0.01,-0.02 -0,-0.01 -0.01,-0.01 -0.02,-0.01 -0.01,-0 -0.02,-0.01 -0.03,-0.01 -0.01,-0 -0.02,-0.01 -0.03,-0.02 -0.01,-0.01 -0.02,-0.01 -0.03,-0.02 -0.01,-0.01 -0.01,-0.02 -0.02,-0.03 -0,-0.01 -0.01,-0.02 -0.01,-0.04l0 -0.02c0,-0.03 0.01,-0.05 0.03,-0.07 0.02,-0.02 0.04,-0.03 0.07,-0.03 0.03,0 0.05,0.01 0.07,0.03 0.02,0.02 0.03,0.04 0.03,0.07l0 0.02 -0.07 0 0 -0.02c0,-0.01 -0,-0.02 -0.01,-0.02 -0.01,-0.01 -0.01,-0.01 -0.02,-0.01 -0.01,0 -0.02,0 -0.02,0.01 -0.01,0.01 -0.01,0.01 -0.01,0.02l0 0.03c0,0.01 0,0.02 0.01,0.02 0.01,0.01 0.01,0.01 0.02,0.02 0.01,0 0.02,0.01 0.03,0.01 0.01,0 0.02,0.01 0.03,0.01 0.01,0 0.02,0.01 0.02,0.02 0.01,0.01 0.01,0.02 0.02,0.03 0,0.01 0.01,0.02 0.01,0.04l0 0.03c0,0.03 -0.01,0.05 -0.03,0.07 -0.02,0.02 -0.04,0.03 -0.07,0.03z"/>
  </g>
 </g>
</svg>
