<?xml version="1.0" encoding="UTF-8"?>
<!DOCTYPE svg PUBLIC "-//W3C//DTD SVG 1.1//EN" "http://www.w3.org/Graphics/SVG/1.1/DTD/svg11.dtd">
<!-- Creator: CorelDRAW -->
<svg xmlns="http://www.w3.org/2000/svg" xml:space="preserve" width="3.3867mm" height="2.3707mm" version="1.1" style="shape-rendering:geometricPrecision; text-rendering:geometricPrecision; image-rendering:optimizeQuality; fill-rule:evenodd; clip-rule:evenodd"
viewBox="0 0 2.09 1.46"
 xmlns:xlink="http://www.w3.org/1999/xlink"
 xmlns:xodm="http://www.corel.com/coreldraw/odm/2003">
 <defs>
  <style type="text/css">
   <![CDATA[
    .fil0 {fill:#FEFEFE;fill-rule:nonzero}
   ]]>
  </style>
 </defs>
 <g id="Camada_x0020_1">
  <metadata id="CorelCorpID_0Corel-Layer"/>
  <path class="fil0" d="M1.4 0.77l-0.53 0.26c-0.02,0.01 -0.09,-0 -0.09,-0.03l0 -0.53c0,-0.02 0.07,-0.04 0.09,-0.03l0.5 0.27c0.02,0.01 0.04,0.04 0.02,0.05zm0.69 -0.31c0,-0.25 -0.21,-0.46 -0.46,-0.46l-1.17 0c-0.25,0 -0.46,0.21 -0.46,0.46l0 0.55c0,0.25 0.21,0.46 0.46,0.46l1.17 0c0.25,0 0.46,-0.21 0.46,-0.46l0 -0.55z"/>
 </g>
</svg>
