<?xml version="1.0" encoding="UTF-8"?>
<!DOCTYPE svg PUBLIC "-//W3C//DTD SVG 1.1//EN" "http://www.w3.org/Graphics/SVG/1.1/DTD/svg11.dtd">
<!-- Creator: CorelDRAW -->
<svg xmlns="http://www.w3.org/2000/svg" xml:space="preserve" width="18.6308mm" height="18.6429mm" version="1.1" style="shape-rendering:geometricPrecision; text-rendering:geometricPrecision; image-rendering:optimizeQuality; fill-rule:evenodd; clip-rule:evenodd"
viewBox="0 0 74.25 74.3"
 xmlns:xlink="http://www.w3.org/1999/xlink"
 xmlns:xodm="http://www.corel.com/coreldraw/odm/2003">
 <defs>
  <style type="text/css">
   <![CDATA[
    .fil1 {fill:#38B6FF}
    .fil0 {fill:white}
   ]]>
  </style>
 </defs>
 <g id="Camada_x0020_1">
  <metadata id="CorelCorpID_0Corel-Layer"/>
  <path class="fil0" d="M41.57 22.71c0,-2.45 -1.99,-4.44 -4.44,-4.44 -2.45,0 -4.44,1.99 -4.44,4.44 0,2.45 1.99,4.44 4.44,4.44 2.45,0 4.44,-1.99 4.44,-4.44z"/>
  <path class="fil0" d="M37.12 56.03c2.01,0 3.65,-1.63 3.65,-3.65l0 -19.71c0,-2.01 -1.63,-3.65 -3.65,-3.65 -2.01,0 -3.65,1.63 -3.65,3.65l0 19.71c0,2.01 1.63,3.65 3.65,3.65z"/>
  <path class="fil1" d="M37.95 74.3l0 -0.01 0.58 -0.02c19.94,-0.75 35.73,-17.16 35.73,-37.12 0,-1.53 -0.1,-3.06 -0.28,-4.58 -0.22,-1.84 -1.78,-3.23 -3.64,-3.23 -2.02,0 -3.67,1.64 -3.67,3.67 0,0.15 0.01,0.29 0.03,0.44 0.15,1.21 0.22,2.43 0.22,3.65 0,16.48 -13.37,29.85 -29.85,29.85 -6.67,0 -13.17,-2.23 -18.42,-6.36 -7.18,-5.65 -11.36,-14.3 -11.36,-23.44 0,-16.48 13.37,-29.85 29.85,-29.85 3.4,0 6.8,0.59 10.01,1.73 0.39,0.14 0.81,0.21 1.23,0.21 2.01,0 3.65,-1.63 3.65,-3.65 0,-1.54 -0.97,-2.92 -2.42,-3.44 -3.98,-1.42 -8.18,-2.15 -12.4,-2.15 -1.51,0 -3.02,0.1 -4.52,0.28 -18.64,2.27 -32.66,18.09 -32.66,36.87 0,20.5 16.62,37.13 37.12,37.14l0.83 0z"/>
 </g>
</svg>
