<?xml version="1.0" encoding="UTF-8"?>
<!DOCTYPE svg PUBLIC "-//W3C//DTD SVG 1.1//EN" "http://www.w3.org/Graphics/SVG/1.1/DTD/svg11.dtd">
<!-- Creator: CorelDRAW -->
<svg xmlns="http://www.w3.org/2000/svg" xml:space="preserve" width="21.3181mm" height="18.178mm" version="1.1" style="shape-rendering:geometricPrecision; text-rendering:geometricPrecision; image-rendering:optimizeQuality; fill-rule:evenodd; clip-rule:evenodd"
viewBox="0 0 188.82 161.01"
 xmlns:xlink="http://www.w3.org/1999/xlink"
 xmlns:xodm="http://www.corel.com/coreldraw/odm/2003">
 <defs>
  <style type="text/css">
   <![CDATA[
    .fil0 {fill:#38B6FF}
    .fil1 {fill:white}
   ]]>
  </style>
 </defs>
 <g id="Camada_x0020_1">
  <metadata id="CorelCorpID_0Corel-Layer"/>
  <path class="fil0" d="M61.62 132.58l63.13 0 0 -12.64 -63.13 0 0 12.64zm0 12.64l63.13 0 0 -9.46 -63.13 0 0 9.46zm0 9.46l63.13 0 0 -6.32 -63.13 0 0 6.32zm0 6.32l63.13 0 0 -3.14 -63.13 0 0 3.14zm0 -44.21l63.13 0c0,-35.91 0,-73.24 0,-116.8l-63.13 0c0,58.79 -0.04,86.74 0,116.8z"/>
  <path class="fil1" d="M78.52 16.99c0,1.68 0.9,2.62 2.62,2.62l8.73 0 0 17.5c0,1.98 3.18,2.79 3.96,0.47 0.13,-0.43 0.09,-1.63 0.09,-2.15l0 -6.45c0.09,-1.16 0.22,-0.77 1.59,-1.68 1.85,-1.2 0.43,-0.34 2.15,-0.82l7.7 -2.15c1.76,-0.56 2.62,-2.15 1.33,-3.44 -1.16,-1.2 -3.4,-0.17 -4.86,0.26l-5.25 1.46 0 -3.35c0.86,-0.22 7.87,-4.95 9.16,-5.72 2.92,-1.81 1.33,-4.69 -0.77,-4.69 -1.12,0 -3.01,1.55 -3.87,2.07 -0.69,0.43 -1.16,0.69 -1.81,1.16 -0.69,0.47 -1.29,0.82 -1.93,1.2 -0.6,0.39 -1.12,0.77 -1.81,1.2 -1.16,0.69 -2.67,0.39 -4.77,0.39 -1.33,0 -9.85,-0.26 -10.97,0.26 -0.65,0.3 -1.29,1.03 -1.29,1.89l-0.01 -0.05zm1.5 -0.56c-0.13,0.56 -0.65,1.81 1.08,1.76 0.56,0 0.82,0 1.38,0 1.42,0 7.65,-0.3 8.69,0.3l0 14.71c0,1.93 -0.34,3.83 0.56,4.47l0.73 -0.22 0.09 -5.03c0.04,-0.39 0,0.09 0,-0.39l-0.04 -3.35c0.04,-1.25 -0.22,-1.08 1.89,-2.32 2.15,-1.29 1.16,-0.73 3.74,-1.46l6.45 -1.68c1.08,-0.09 0.34,-0.17 1.33,-0.43l0 -0.95c-0.9,-0.47 -0.6,-0.3 -2.28,0.13l-5.25 1.46c-3.78,0.95 -3.1,1.85 -3.1,-4.39 0,-0.82 4.73,-3.44 5.63,-4.04 0.73,-0.47 1.33,-0.82 2.07,-1.29 1.63,-1.08 3.66,-1.85 2.84,-3.1 -0.82,-1.2 -2.36,0.43 -4.09,1.46l-5.89 3.78c-1.76,1.03 -11.91,-0.34 -15.83,0.56l-0.01 0zm15.27 13.93c0,4.82 5.98,5.08 7.14,1.38 0.86,-2.79 -1.72,-5.59 -4.6,-4.6 -1.33,0.43 -2.54,1.59 -2.54,3.22l0 0zm1.29 0.17c0,3.05 4.64,3.31 4.64,-0.17 0,-2.67 -4.64,-2.97 -4.64,0.17z"/>
  <path class="fil1" d="M41.14 102.86c3.71,0 9.58,0.46 12.47,-0.81 7.36,-3.23 6.74,-13.24 0.07,-15.95 -3.32,-1.35 -8.46,-0.87 -12.42,-0.87 -0.54,2.12 -0.13,14.49 -0.13,17.64l0.02 -0.02zm4.11 -3.33c4.13,0 9.46,0.63 9.46,-5.83 0,-5.56 -5.92,-5.13 -9.46,-5.13l0 10.96zm16.61 3.33c4.13,0 10.14,0.51 13.19,-1.14 3.47,-1.85 5.02,-5.37 4.38,-9.39 -0.64,-3.98 -3.83,-6.46 -7.92,-7 -1.36,-0.18 -8.81,0.15 -9.63,-0.18l-0.03 17.72 0.02 -0.02zm-61.7 0l3.81 -0.01 0 -10.09c0.24,0.21 0.13,0.1 0.37,0.4 1.11,1.39 4.38,7.65 5.04,7.85 0.97,0.28 1.66,-0.08 2.15,-0.9l4.62 -7.64 0.07 10.4 3.83 0 -0.07 -15.8c0.01,-1.09 0.3,-1.69 -0.57,-1.85 -0.4,-0.07 -2.2,0.02 -2.75,0.02 -1.06,1.63 -2.21,3.65 -3.24,5.46 -0.57,0.99 -1.08,1.79 -1.58,2.68 -0.48,0.85 -1.15,2.27 -1.88,2.75 -0.12,-0.42 -6.08,-10.61 -6.56,-10.79l-3.11 -0.09c-0.54,2.12 -0.13,14.49 -0.13,17.64l0.01 -0.02zm125.73 0l0.58 -0.13 -0.03 -10.4c0.04,0.04 0.12,0.04 0.13,0.12l1.27 1.39c0.42,0.55 0.84,1.11 1.23,1.54 0.97,1.08 1.75,2.05 2.6,3.15 3.3,4.25 3.12,4.81 6.91,4.25l0.02 -16.16c0.03,-1.79 0.42,-1.39 -3.98,-1.39l-0.07 10.54c-0.78,-0.37 -7.5,-9.27 -8.69,-10.36 -0.52,-0.3 -0.28,-0.19 -1.6,-0.18l-1.81 -0.07 0 17.71 3.41 0 0.03 0zm-101.63 0l13.63 0 0 -3.17 -9.46 -0.08 -0.15 -4.07 8.25 -0.03 0 -3.14 -8.09 0 -0.18 -3.78 9.19 -0.06 0.1 -3.27 -13.2 0c-0.52,2.12 -0.1,14.49 -0.1,17.64l-0 -0.05zm118.41 0l13.63 0 0 -3.17 -9.46 -0.08 -0.15 -4.07 8.25 -0.03 0 -3.14 -8.12 0 -0.15 -3.78 9.19 -0.06 0.1 -3.27 -13.17 0c-0.54,2.12 -0.13,14.49 -0.13,17.64l-0 -0.05zm31.84 -12.38c0,6.07 9.01,4.41 10.11,6.98 0.85,2 -1.9,2.41 -3.48,2.41 -2.24,0 -3.86,-0.94 -5.55,-1.69l-1.41 2.9c3.45,2.59 11.23,3.2 13.84,-0.73 1.43,-2.17 0.81,-4.99 -0.96,-6.19 -1.87,-1.27 -4.34,-1.47 -6.55,-2.18 -3.44,-1.12 -2,-3.77 1.27,-3.77 2.59,0 3.2,0.87 5.13,1.29l1.17 -3.08c-2.57,-0.76 -2.78,-1.45 -6.28,-1.45 -3.72,0 -7.25,1.7 -7.25,5.55l-0.04 -0.03zm-16 0c0,6.07 9.01,4.41 10.11,6.98 0.85,2 -1.9,2.41 -3.48,2.41 -2.24,0 -3.86,-0.94 -5.55,-1.69l-1.41 2.9c3.45,2.59 11.23,3.2 13.84,-0.73 1.43,-2.17 0.81,-4.99 -0.96,-6.19 -1.87,-1.27 -4.33,-1.47 -6.55,-2.18 -3.44,-1.12 -2,-3.77 1.27,-3.77 2.59,0 3.2,0.87 5.13,1.29l1.17 -3.08c-2.57,-0.76 -2.78,-1.45 -6.28,-1.45 -3.72,0 -7.25,1.7 -7.25,5.55l-0.04 -0.03zm-75.96 12.38l4.05 0 0 -6.4 8.1 0c0,-4.04 0.39,-3.3 -1.87,-3.3l-5.34 0.02c-1.29,0.04 -0.9,-0.15 -0.9,-4.6l9.18 0 0 -3.41c-0.51,0.05 -0.58,0.06 -0.82,0.08l-12.41 -0.08 0 17.72 0 -0.02zm27.96 -14.29l0 14.29 4.05 0 0 -14.29c6.47,0 5.65,0.4 5.65,-1.54 0,-0.69 0.09,-0.93 -0.1,-1.87l-13.05 0.08c-0.46,0 -0.34,0 -0.72,0 -0.31,0 -0.64,-0.03 -0.73,-0.02 -1.05,0.03 -0.76,0.15 -0.76,1.82 0,0.39 -0.06,0.79 -0.03,1.09 0.04,0.67 0,0.48 1.18,0.48 1.5,0 3.01,-0.01 4.51,-0.01l0 -0.03zm-44.59 10.88l4.26 0c3.38,0 5.4,-2.74 5.22,-5.62 -0.19,-3.3 -2.35,-5.26 -6.08,-5.26l-3.41 0 0 10.88 0.02 0zm32.65 3.41l4.05 0 0 -17.07c0,-0.72 -0.39,-0.6 -1.24,-0.58l-1.57 0.01c-0.73,0 -0.37,0 -1.26,-0.07l0 17.71 0.02 0z"/>
 </g>
</svg>
