<?xml version="1.0" encoding="UTF-8"?>
<!DOCTYPE svg PUBLIC "-//W3C//DTD SVG 1.1//EN" "http://www.w3.org/Graphics/SVG/1.1/DTD/svg11.dtd">
<!-- Creator: CorelDRAW -->
<svg xmlns="http://www.w3.org/2000/svg" xml:space="preserve" width="23.391mm" height="19.9456mm" version="1.1" style="shape-rendering:geometricPrecision; text-rendering:geometricPrecision; image-rendering:optimizeQuality; fill-rule:evenodd; clip-rule:evenodd"
viewBox="0 0 143.21 122.11"
 xmlns:xlink="http://www.w3.org/1999/xlink"
 xmlns:xodm="http://www.corel.com/coreldraw/odm/2003">
 <defs>
  <style type="text/css">
   <![CDATA[
    .fil1 {fill:#1B5171}
    .fil0 {fill:#3EC1C9}
   ]]>
  </style>
 </defs>
 <g id="Camada_x0020_1">
  <metadata id="CorelCorpID_0Corel-Layer"/>
  <path class="fil0" d="M46.73 100.55l47.88 0 0 -9.59 -47.88 0 0 9.59zm0 9.59l47.88 0 0 -7.18 -47.88 0 0 7.18zm0 7.18l47.88 0 0 -4.79 -47.88 0 0 4.79zm0 4.79l47.88 0 0 -2.38 -47.88 0 0 2.38zm0 -33.53l47.88 0c0,-27.24 0,-55.54 0,-88.58l-47.88 0c0,44.58 -0.03,65.79 0,88.58z"/>
  <path class="fil1" d="M59.55 12.88c0,1.27 0.68,1.99 1.99,1.99l6.62 0 0 13.27c0,1.5 2.41,2.12 3,0.36 0.1,-0.33 0.07,-1.24 0.07,-1.63l0 -4.89c0.07,-0.88 0.16,-0.59 1.21,-1.27 1.4,-0.91 0.33,-0.26 1.63,-0.62l5.84 -1.63c1.34,-0.42 1.99,-1.63 1.01,-2.61 -0.88,-0.91 -2.58,-0.13 -3.69,0.19l-3.98 1.11 0 -2.54c0.65,-0.16 5.97,-3.75 6.95,-4.34 2.22,-1.37 1.01,-3.55 -0.59,-3.55 -0.85,0 -2.28,1.17 -2.94,1.57 -0.52,0.33 -0.88,0.52 -1.37,0.88 -0.52,0.36 -0.98,0.62 -1.47,0.91 -0.46,0.29 -0.85,0.59 -1.37,0.91 -0.88,0.52 -2.02,0.29 -3.62,0.29 -1.01,0 -7.47,-0.2 -8.32,0.19 -0.49,0.23 -0.98,0.78 -0.98,1.44l-0 -0.03zm1.14 -0.42c-0.1,0.42 -0.49,1.37 0.82,1.34 0.42,0 0.62,0 1.04,0 1.08,0 5.81,-0.23 6.59,0.23l0 11.15c0,1.47 -0.26,2.9 0.42,3.39l0.56 -0.16 0.07 -3.82c0.03,-0.29 0,0.07 0,-0.29l-0.03 -2.54c0.03,-0.95 -0.16,-0.82 1.44,-1.76 1.63,-0.98 0.88,-0.56 2.84,-1.11l4.89 -1.27c0.82,-0.07 0.26,-0.13 1.01,-0.33l0 -0.72c-0.68,-0.36 -0.46,-0.23 -1.73,0.1l-3.98 1.11c-2.87,0.72 -2.35,1.4 -2.35,-3.33 0,-0.62 3.59,-2.61 4.27,-3.07 0.56,-0.36 1.01,-0.62 1.57,-0.98 1.24,-0.82 2.77,-1.4 2.15,-2.35 -0.62,-0.91 -1.79,0.33 -3.1,1.11l-4.47 2.87c-1.34,0.78 -9.03,-0.26 -12,0.42l-0 0zm11.58 10.57c0,3.65 4.53,3.85 5.41,1.04 0.65,-2.12 -1.31,-4.24 -3.49,-3.49 -1.01,0.33 -1.92,1.21 -1.92,2.45l0 0zm0.98 0.13c0,2.32 3.52,2.51 3.52,-0.13 0,-2.02 -3.52,-2.25 -3.52,0.13z"/>
  <path class="fil1" d="M31.2 78.01c2.81,0 7.27,0.35 9.46,-0.61 5.58,-2.45 5.11,-10.04 0.06,-12.1 -2.52,-1.02 -6.42,-0.66 -9.42,-0.66 -0.41,1.61 -0.1,10.99 -0.1,13.38l0.01 -0.01zm3.12 -2.53c3.13,0 7.18,0.48 7.18,-4.42 0,-4.22 -4.49,-3.89 -7.18,-3.89l0 8.31zm12.6 2.53c3.13,0 7.69,0.39 10,-0.86 2.63,-1.41 3.81,-4.07 3.32,-7.12 -0.49,-3.02 -2.9,-4.9 -6.01,-5.31 -1.03,-0.14 -6.68,0.11 -7.3,-0.14l-0.02 13.44 0.01 -0.01zm-46.79 0l2.89 -0.01 0 -7.65c0.18,0.16 0.1,0.08 0.28,0.31 0.84,1.05 3.32,5.81 3.82,5.95 0.74,0.22 1.26,-0.06 1.63,-0.68l3.5 -5.79 0.06 7.89 2.9 0 -0.06 -11.98c0.01,-0.83 0.23,-1.28 -0.43,-1.41 -0.31,-0.06 -1.67,0.01 -2.09,0.01 -0.81,1.24 -1.68,2.77 -2.46,4.14 -0.43,0.75 -0.82,1.36 -1.2,2.03 -0.36,0.65 -0.87,1.72 -1.43,2.09 -0.09,-0.32 -4.61,-8.05 -4.98,-8.19l-2.36 -0.07c-0.41,1.61 -0.1,10.99 -0.1,13.38l0.01 -0.01zm95.35 0l0.44 -0.1 -0.02 -7.89c0.03,0.03 0.09,0.03 0.1,0.09l0.96 1.05c0.32,0.42 0.64,0.84 0.93,1.17 0.74,0.82 1.33,1.55 1.97,2.39 2.51,3.22 2.37,3.65 5.24,3.22l0.01 -12.26c0.02,-1.36 0.32,-1.05 -3.02,-1.05l-0.06 7.99c-0.59,-0.28 -5.69,-7.03 -6.59,-7.86 -0.4,-0.23 -0.21,-0.15 -1.21,-0.14l-1.37 -0.06 0 13.44 2.59 0 0.02 0zm-77.08 0l10.34 0 0 -2.4 -7.18 -0.06 -0.11 -3.08 6.26 -0.02 0 -2.38 -6.13 0 -0.14 -2.87 6.97 -0.05 0.08 -2.48 -10.01 0c-0.4,1.61 -0.08,10.99 -0.08,13.38l-0 -0.03zm89.81 0l10.34 0 0 -2.4 -7.18 -0.06 -0.11 -3.08 6.26 -0.02 0 -2.38 -6.16 0 -0.11 -2.87 6.97 -0.05 0.08 -2.48 -9.99 0c-0.41,1.61 -0.1,10.99 -0.1,13.38l-0 -0.03zm24.15 -9.39c0,4.6 6.84,3.35 7.66,5.3 0.65,1.52 -1.44,1.83 -2.64,1.83 -1.7,0 -2.93,-0.71 -4.21,-1.28l-1.07 2.2c2.62,1.96 8.51,2.43 10.5,-0.56 1.09,-1.64 0.61,-3.79 -0.73,-4.69 -1.42,-0.96 -3.29,-1.11 -4.97,-1.66 -2.61,-0.85 -1.52,-2.86 0.96,-2.86 1.96,0 2.43,0.66 3.89,0.97l0.88 -2.34c-1.95,-0.58 -2.11,-1.1 -4.76,-1.1 -2.82,0 -5.5,1.29 -5.5,4.21l-0.03 -0.02zm-12.13 0c0,4.6 6.84,3.35 7.66,5.3 0.65,1.52 -1.44,1.83 -2.64,1.83 -1.7,0 -2.92,-0.71 -4.21,-1.28l-1.07 2.2c2.62,1.96 8.51,2.43 10.5,-0.56 1.09,-1.64 0.61,-3.79 -0.73,-4.69 -1.42,-0.96 -3.29,-1.11 -4.97,-1.66 -2.61,-0.85 -1.52,-2.86 0.96,-2.86 1.96,0 2.43,0.66 3.89,0.97l0.88 -2.34c-1.95,-0.58 -2.11,-1.1 -4.76,-1.1 -2.82,0 -5.5,1.29 -5.5,4.21l-0.03 -0.02zm-57.61 9.39l3.07 0 0 -4.85 6.15 0c0,-3.06 0.29,-2.51 -1.42,-2.51l-4.05 0.01c-0.97,0.03 -0.68,-0.11 -0.68,-3.49l6.96 0 0 -2.59c-0.39,0.03 -0.44,0.05 -0.62,0.06l-9.41 -0.06 0 13.44 0 -0.01zm21.2 -10.84l0 10.84 3.07 0 0 -10.84c4.91,0 4.29,0.31 4.29,-1.17 0,-0.52 0.07,-0.7 -0.08,-1.42l-9.9 0.06c-0.35,0 -0.26,0 -0.54,0 -0.24,0 -0.49,-0.02 -0.56,-0.01 -0.79,0.02 -0.58,0.11 -0.58,1.38 0,0.3 -0.05,0.6 -0.02,0.83 0.03,0.51 0,0.36 0.9,0.36 1.13,0 2.28,-0.01 3.42,-0.01l0 -0.02zm-33.82 8.25l3.23 0c2.56,0 4.09,-2.07 3.96,-4.26 -0.15,-2.51 -1.78,-3.99 -4.61,-3.99l-2.59 0 0 8.25 0.01 0zm24.76 2.58l3.07 0 0 -12.95c0,-0.54 -0.3,-0.45 -0.94,-0.44l-1.19 0.01c-0.56,0 -0.28,0 -0.95,-0.06l0 13.44 0.01 0z"/>
 </g>
</svg>
