<?xml version="1.0" encoding="UTF-8"?>
<!DOCTYPE svg PUBLIC "-//W3C//DTD SVG 1.1//EN" "http://www.w3.org/Graphics/SVG/1.1/DTD/svg11.dtd">
<!-- Creator: CorelDRAW -->
<svg xmlns="http://www.w3.org/2000/svg" xml:space="preserve" width="191.917mm" height="122.905mm" version="1.1" style="shape-rendering:geometricPrecision; text-rendering:geometricPrecision; image-rendering:optimizeQuality; fill-rule:evenodd; clip-rule:evenodd"
viewBox="0 0 1055.76 676.12"
 xmlns:xlink="http://www.w3.org/1999/xlink"
 xmlns:xodm="http://www.corel.com/coreldraw/odm/2003">
 <defs>
  <style type="text/css">
   <![CDATA[
    .fil10 {fill:none}
    .fil3 {fill:#0FC4CD}
    .fil9 {fill:#17C9D3}
    .fil21 {fill:#1AD4E0}
    .fil11 {fill:#22D3D9}
    .fil4 {fill:#22D7E0}
    .fil14 {fill:#5EE8F2}
    .fil1 {fill:#93F1F9}
    .fil18 {fill:#9BF5FD}
    .fil8 {fill:#9EF7FD}
    .fil0 {fill:url(#id0)}
    .fil7 {fill:url(#id1)}
    .fil17 {fill:url(#id2)}
    .fil6 {fill:url(#id3)}
    .fil2 {fill:url(#id4)}
    .fil22 {fill:url(#id5)}
    .fil19 {fill:url(#id6)}
    .fil20 {fill:url(#id7)}
    .fil12 {fill:url(#id8)}
    .fil13 {fill:url(#id9)}
    .fil16 {fill:url(#id10)}
    .fil5 {fill:url(#id11)}
    .fil15 {fill:url(#id12)}
   ]]>
  </style>
  <linearGradient id="id0" gradientUnits="userSpaceOnUse" x1="263.88" y1="304.77" x2="412.92" y2="304.77">
   <stop offset="0" style="stop-opacity:1; stop-color:#189EA9"/>
   <stop offset="1" style="stop-opacity:1; stop-color:#098A8F"/>
  </linearGradient>
  <linearGradient id="id1" gradientUnits="userSpaceOnUse" x1="412.92" y1="270.14" x2="412.93" y2="-298.18">
   <stop offset="0" style="stop-opacity:1; stop-color:#55E5F0"/>
   <stop offset="1" style="stop-opacity:1; stop-color:#FEFEFE"/>
  </linearGradient>
  <linearGradient id="id2" gradientUnits="userSpaceOnUse" x1="805.31" y1="135.4" x2="756.35" y2="25.66">
   <stop offset="0" style="stop-opacity:1; stop-color:#088F93"/>
   <stop offset="1" style="stop-opacity:1; stop-color:#097478"/>
  </linearGradient>
  <linearGradient id="id3" gradientUnits="userSpaceOnUse" x1="546.77" y1="361.49" x2="421.94" y2="361.49">
   <stop offset="0" style="stop-opacity:1; stop-color:#09979B"/>
   <stop offset="1" style="stop-opacity:1; stop-color:#1099A3"/>
  </linearGradient>
  <linearGradient id="id4" gradientUnits="userSpaceOnUse" x1="208.88" y1="406.06" x2="208.88" y2="475.08">
   <stop offset="0" style="stop-opacity:1; stop-color:#047A7A"/>
   <stop offset="1" style="stop-opacity:1; stop-color:#0B5F63"/>
  </linearGradient>
  <linearGradient id="id5" gradientUnits="userSpaceOnUse" xlink:href="#id4" x1="633.31" y1="406.06" x2="633.31" y2="475.08">
  </linearGradient>
  <linearGradient id="id6" gradientUnits="userSpaceOnUse" x1="578.88" y1="149.12" x2="585.18" y2="152.9">
   <stop offset="0" style="stop-opacity:1; stop-color:#0A7D85"/>
   <stop offset="1" style="stop-opacity:1; stop-color:#17C9D3"/>
  </linearGradient>
  <linearGradient id="id7" gradientUnits="userSpaceOnUse" x1="228.97" y1="149.12" x2="235.27" y2="152.9">
   <stop offset="0" style="stop-opacity:1; stop-color:#0A7D85"/>
   <stop offset="1" style="stop-opacity:1; stop-color:#0FC4CD"/>
  </linearGradient>
  <linearGradient id="id8" gradientUnits="userSpaceOnUse" x1="714.82" y1="271.5" x2="643.25" y2="259.51">
   <stop offset="0" style="stop-opacity:1; stop-color:#047877"/>
   <stop offset="1" style="stop-opacity:1; stop-color:#07615E"/>
  </linearGradient>
  <linearGradient id="id9" gradientUnits="userSpaceOnUse" x1="827.12" y1="259.51" x2="715.08" y2="170.91">
   <stop offset="0" style="stop-opacity:1; stop-color:#09989E"/>
   <stop offset="1" style="stop-opacity:1; stop-color:#0B7F87"/>
  </linearGradient>
  <linearGradient id="id10" gradientUnits="userSpaceOnUse" x1="918.14" y1="43.56" x2="776.5" y2="-7.76">
   <stop offset="0" style="stop-opacity:1; stop-color:#1CD4D6"/>
   <stop offset="1" style="stop-opacity:1; stop-color:#14B3B3"/>
  </linearGradient>
  <linearGradient id="id11" gradientUnits="userSpaceOnUse" x1="171.97" y1="187.63" x2="200.71" y2="51.23">
   <stop offset="0" style="stop-opacity:1; stop-color:#17C8D0"/>
   <stop offset="1" style="stop-opacity:1; stop-color:#19BBC4"/>
  </linearGradient>
  <linearGradient id="id12" gradientUnits="userSpaceOnUse" x1="788.99" y1="64.19" x2="683.23" y2="64.19">
   <stop offset="0" style="stop-opacity:1; stop-color:#26DEE6"/>
   <stop offset="1" style="stop-opacity:1; stop-color:#1EC4C7"/>
  </linearGradient>
 </defs>
 <g id="Camada_x0020_1_0">
  <metadata id="CorelCorpID_0Corel-Layer"/>
  <polygon class="fil0" points="412.92,437.82 412.92,270.14 263.88,171.73 "/>
  <polygon class="fil1" points="263.88,0 137.54,0 212.06,102.47 "/>
  <polygon class="fil2" points="137.54,475.08 263.88,475.08 212.06,400.56 "/>
  <polygon class="fil3" points="263.88,475.08 212.06,400.56 212.06,102.47 263.88,171.73 "/>
  <polygon class="fil4" points="263.88,0 263.88,171.73 212.06,102.47 "/>
  <polygon class="fil5" points="137.54,475.08 212.06,400.56 212.06,102.47 137.54,0 "/>
  <polygon class="fil6" points="412.92,437.82 412.92,270.14 561.97,171.73 "/>
  <polygon class="fil7" points="412.92,270.14 561.97,0 561.97,171.73 412.92,270.14 263.88,0 263.88,171.73 "/>
  <polygon class="fil8" points="561.97,0 688.31,0 613.79,102.47 "/>
  <polygon class="fil9" points="561.97,475.08 613.79,400.56 613.79,102.47 561.97,0 "/>
  <polygon class="fil10" points="561.97,0 561.97,171.73 613.79,102.47 "/>
  <path class="fil11" d="M688.31 475.08l-74.52 -74.52 0 -154.26 74.52 31.73 0 197.05zm-74.52 -228.78l0 -143.83 74.52 -102.47 0 170.91 -74.52 75.39z"/>
  <polygon class="fil12" points="767.14,278.03 774.01,269.66 715.08,249.37 613.79,246.3 688.31,278.03 "/>
  <polygon class="fil13" points="856.58,170.91 715.08,249.37 774.01,269.66 "/>
  <polygon class="fil14" points="688.31,170.91 613.79,246.3 715.08,249.37 856.58,170.91 "/>
  <polygon class="fil15" points="688.31,0 688.31,110.42 788.99,50.49 "/>
  <polygon class="fil16" points="940.79,0 882.59,67.58 799.14,51.33 "/>
  <polygon class="fil17" points="788.99,50.49 799.14,51.33 882.59,67.58 845.77,110.42 688.31,110.42 "/>
  <polygon class="fil18" points="940.79,0 688.31,0 788.99,50.49 799.14,51.33 "/>
  <polygon class="fil19" points="613.79,102.47 561.97,171.73 561.97,204.87 "/>
  <polygon class="fil20" points="212.06,102.47 263.88,171.73 263.88,204.87 "/>
  <path class="fil21" d="M-0 674.43l21.1 0 0 -58.19 29.06 47.78 10.11 0 29.21 -49.06 0.13 59.47 21.1 0 -0.28 -98.19 -18.49 0 -36.34 61.28 -36.96 -61.28 -18.63 0 0 98.19zm134.34 0l75.97 0 0 -18.01 -53.6 0 0 -23.07 45.72 0 0 -17.45 -45.72 0 0 -21.66 51.77 0 0 -18.01 -74.14 0 0 98.19zm94.39 0l44.59 0c9.77,0 19.43,-1.71 28.21,-6.1 7.92,-3.96 14.38,-9.59 19.08,-17.11 4.9,-7.85 6.87,-16.69 6.87,-25.88 0,-9.2 -1.94,-18.1 -6.87,-25.95 -4.7,-7.49 -11.17,-13.09 -19.08,-17.04 -8.79,-4.39 -18.45,-6.1 -28.21,-6.1l-44.59 0 0 98.19zm22.51 -18.43l0 -61.33 20.96 0c5.93,0 11.85,1.01 17.16,3.74 4.78,2.46 8.59,5.97 11.31,10.6 2.92,4.97 4.03,10.6 4.03,16.32 0,5.71 -1.14,11.28 -4.03,16.25 -2.71,4.67 -6.51,8.21 -11.31,10.67 -5.31,2.73 -11.23,3.74 -17.16,3.74l-20.96 0zm93.69 18.43l44.59 0c9.77,0 19.43,-1.71 28.21,-6.1 7.92,-3.96 14.38,-9.59 19.08,-17.11 4.9,-7.85 6.87,-16.69 6.87,-25.88 0,-9.2 -1.94,-18.1 -6.87,-25.95 -4.7,-7.49 -11.17,-13.09 -19.08,-17.04 -8.79,-4.39 -18.45,-6.1 -28.21,-6.1l-44.59 0 0 98.19zm22.51 -18.43l0 -61.33 20.96 0c5.93,0 11.85,1.01 17.16,3.74 4.78,2.46 8.59,5.97 11.31,10.6 2.92,4.97 4.03,10.6 4.03,16.32 0,5.71 -1.14,11.28 -4.03,16.25 -2.71,4.67 -6.51,8.21 -11.31,10.67 -5.31,2.73 -11.23,3.74 -17.16,3.74l-20.96 0zm93.69 18.43l22.51 0 0 -35.87 45.58 0 0 -18.01 -45.58 0 0 -26.3 51.63 0 0 -18.01 -74.14 0 0 98.19zm89.89 0l22.51 0 0 -98.19 -22.51 0 0 98.19zm66.54 0l22.51 0 0 -79.9 31.51 0 0 -18.29 -85.53 0 0 18.29 31.51 0 0 79.9zm66.54 0l22.23 0 0 -60.02 49.3 60.02 18.5 0 0 -98.19 -22.23 0 0 59.99 -49.16 -59.99 -18.64 0 0 98.19zm113.66 0l75.97 0 0 -18.01 -53.6 0 0 -23.07 45.72 0 0 -17.45 -45.72 0 0 -21.66 51.77 0 0 -18.01 -74.14 0 0 98.19zm157.06 -74.2l6.93 -17.05c-4.84,-3.05 -10.21,-5.12 -15.76,-6.46 -5.99,-1.45 -12.09,-2.18 -18.25,-2.18 -7.71,0 -15.99,0.94 -23.08,4.14 -5.48,2.47 -10.39,5.99 -13.73,11.06 -3.05,4.65 -4.55,9.77 -4.55,15.33 0,4.44 0.76,9.05 3.14,12.87 2.09,3.34 4.82,6.06 8.18,8.11 3.5,2.14 7.26,3.8 11.15,5.05 4.02,1.29 8.1,2.4 12.23,3.3 3.76,0.82 7.5,1.74 11.19,2.82 2.86,0.83 5.81,2.02 8.2,3.82 2.12,1.59 3.15,3.73 3.15,6.37 0,2.1 -0.67,3.96 -2,5.57 -1.55,1.89 -3.9,3.04 -6.18,3.77 -3.4,1.09 -7.4,1.34 -10.95,1.34 -5.99,0 -11.87,-1 -17.56,-2.89 -5.25,-1.75 -10.35,-4.11 -14.88,-7.31l-7.62 16.91c5.05,3.84 11.27,6.37 17.31,8.14 7.36,2.15 14.95,3.16 22.61,3.16 7.75,0 16.11,-0.95 23.22,-4.21 5.46,-2.5 10.41,-6.03 13.8,-11.06 3.08,-4.57 4.62,-9.61 4.62,-15.11 0,-4.41 -0.77,-8.93 -3.14,-12.73 -2.09,-3.34 -4.82,-6.06 -8.18,-8.11 -3.48,-2.13 -7.24,-3.74 -11.15,-4.91 -4.04,-1.21 -8.12,-2.29 -12.23,-3.23 -3.75,-0.86 -7.48,-1.79 -11.19,-2.81 -2.86,-0.8 -5.81,-1.96 -8.2,-3.75 -2.08,-1.56 -3.15,-3.63 -3.15,-6.23 0,-2.13 0.59,-4.07 1.86,-5.78 1.47,-1.97 3.85,-3.23 6.11,-4.06 3.37,-1.24 7.31,-1.56 10.88,-1.56 4.59,0 9.13,0.69 13.54,1.9 4.79,1.32 9.36,3.32 13.68,5.77zm89.75 0l6.93 -17.05c-4.84,-3.05 -10.21,-5.12 -15.76,-6.46 -5.99,-1.45 -12.09,-2.18 -18.25,-2.18 -7.71,0 -15.99,0.94 -23.08,4.14 -5.48,2.47 -10.39,5.99 -13.73,11.06 -3.05,4.65 -4.55,9.77 -4.55,15.33 0,4.44 0.76,9.05 3.14,12.87 2.09,3.34 4.82,6.06 8.18,8.11 3.5,2.14 7.26,3.8 11.15,5.05 4.02,1.29 8.1,2.4 12.23,3.3 3.76,0.82 7.5,1.74 11.19,2.82 2.86,0.83 5.81,2.02 8.2,3.82 2.12,1.59 3.15,3.73 3.15,6.37 0,2.1 -0.67,3.96 -2,5.57 -1.55,1.89 -3.9,3.04 -6.18,3.77 -3.4,1.09 -7.4,1.34 -10.95,1.34 -5.99,0 -11.87,-1 -17.56,-2.89 -5.25,-1.75 -10.35,-4.11 -14.88,-7.31l-7.62 16.91c5.05,3.84 11.27,6.37 17.31,8.14 7.36,2.15 14.95,3.16 22.61,3.16 7.75,0 16.11,-0.95 23.22,-4.21 5.46,-2.5 10.41,-6.03 13.8,-11.06 3.08,-4.57 4.62,-9.61 4.62,-15.11 0,-4.41 -0.77,-8.93 -3.14,-12.73 -2.09,-3.34 -4.82,-6.06 -8.18,-8.11 -3.48,-2.13 -7.24,-3.74 -11.15,-4.91 -4.04,-1.21 -8.12,-2.29 -12.23,-3.23 -3.75,-0.86 -7.48,-1.79 -11.19,-2.81 -2.86,-0.8 -5.81,-1.96 -8.2,-3.75 -2.08,-1.56 -3.15,-3.63 -3.15,-6.23 0,-2.13 0.59,-4.07 1.86,-5.78 1.47,-1.97 3.85,-3.23 6.11,-4.06 3.37,-1.24 7.31,-1.56 10.88,-1.56 4.59,0 9.13,0.69 13.54,1.9 4.79,1.32 9.36,3.32 13.68,5.77z"/>
  <polygon class="fil22" points="688.31,475.08 561.97,475.08 613.79,400.56 "/>
 </g>
</svg>
