<?xml version="1.0" encoding="UTF-8"?>
<!DOCTYPE svg PUBLIC "-//W3C//DTD SVG 1.1//EN" "http://www.w3.org/Graphics/SVG/1.1/DTD/svg11.dtd">
<!-- Creator: CorelDRAW -->
<svg xmlns="http://www.w3.org/2000/svg" xml:space="preserve" width="21.7017mm" height="18.5051mm" version="1.1" style="shape-rendering:geometricPrecision; text-rendering:geometricPrecision; image-rendering:optimizeQuality; fill-rule:evenodd; clip-rule:evenodd"
viewBox="0 0 136.58 116.47"
 xmlns:xlink="http://www.w3.org/1999/xlink"
 xmlns:xodm="http://www.corel.com/coreldraw/odm/2003">
 <defs>
  <style type="text/css">
   <![CDATA[
    .fil1 {fill:#22668D}
    .fil0 {fill:#38B6FF}
   ]]>
  </style>
 </defs>
 <g id="Camada_x0020_1_0">
  <metadata id="CorelCorpID_0Corel-Layer"/>
  <path class="fil0" d="M44.57 95.9l45.67 0 0 -9.15 -45.67 0 0 9.15zm0 9.14l45.67 0 0 -6.84 -45.67 0 0 6.84zm0 6.84l45.67 0 0 -4.57 -45.67 0 0 4.57zm0 4.57l45.67 0 0 -2.27 -45.67 0 0 2.27zm0 -31.98l45.67 0c0,-25.97 0,-52.98 0,-84.49l-45.67 0c0,42.52 -0.03,62.74 0,84.49z"/>
  <path class="fil1" d="M56.8 12.29c0,1.21 0.65,1.9 1.9,1.9l6.32 0 0 12.66c0,1.43 2.3,2.02 2.86,0.34 0.09,-0.31 0.06,-1.18 0.06,-1.55l0 -4.66c0.06,-0.84 0.16,-0.56 1.15,-1.21 1.34,-0.87 0.31,-0.25 1.55,-0.59l5.57 -1.55c1.28,-0.4 1.9,-1.55 0.96,-2.49 -0.84,-0.87 -2.46,-0.13 -3.52,0.19l-3.79 1.06 0 -2.43c0.62,-0.16 5.69,-3.58 6.63,-4.14 2.11,-1.31 0.96,-3.39 -0.56,-3.39 -0.81,0 -2.18,1.12 -2.8,1.49 -0.5,0.31 -0.84,0.5 -1.31,0.84 -0.5,0.34 -0.93,0.59 -1.4,0.87 -0.43,0.28 -0.81,0.56 -1.31,0.87 -0.84,0.5 -1.93,0.28 -3.45,0.28 -0.96,0 -7.12,-0.19 -7.93,0.19 -0.47,0.22 -0.93,0.75 -0.93,1.37l-0 -0.03zm1.09 -0.4c-0.09,0.4 -0.47,1.31 0.78,1.28 0.4,0 0.59,0 0.99,0 1.03,0 5.54,-0.22 6.28,0.22l0 10.64c0,1.4 -0.25,2.77 0.4,3.23l0.53 -0.16 0.06 -3.64c0.03,-0.28 0,0.06 0,-0.28l-0.03 -2.43c0.03,-0.9 -0.16,-0.78 1.37,-1.68 1.55,-0.93 0.84,-0.53 2.71,-1.06l4.67 -1.21c0.78,-0.06 0.25,-0.13 0.96,-0.31l0 -0.69c-0.65,-0.34 -0.43,-0.22 -1.65,0.09l-3.79 1.06c-2.74,0.69 -2.24,1.34 -2.24,-3.17 0,-0.59 3.42,-2.49 4.08,-2.93 0.53,-0.34 0.96,-0.59 1.49,-0.93 1.18,-0.78 2.64,-1.34 2.05,-2.24 -0.59,-0.87 -1.71,0.31 -2.96,1.06l-4.26 2.74c-1.28,0.75 -8.62,-0.25 -11.45,0.4l-0 0zm11.04 10.08c0,3.48 4.32,3.67 5.16,0.99 0.62,-2.02 -1.25,-4.04 -3.33,-3.33 -0.96,0.31 -1.84,1.15 -1.84,2.33l0 0zm0.93 0.13c0,2.21 3.36,2.4 3.36,-0.13 0,-1.93 -3.36,-2.15 -3.36,0.13z"/>
  <path class="fil1" d="M29.76 74.41c2.68,0 6.93,0.33 9.02,-0.58 5.32,-2.34 4.88,-9.58 0.05,-11.54 -2.4,-0.97 -6.12,-0.63 -8.99,-0.63 -0.39,1.54 -0.1,10.48 -0.1,12.76l0.01 -0.01zm2.97 -2.41c2.98,0 6.84,0.45 6.84,-4.22 0,-4.02 -4.28,-3.71 -6.84,-3.71l0 7.93zm12.01 2.41c2.98,0 7.33,0.37 9.54,-0.82 2.51,-1.34 3.63,-3.88 3.17,-6.79 -0.47,-2.88 -2.77,-4.67 -5.73,-5.06 -0.98,-0.13 -6.37,0.11 -6.96,-0.13l-0.02 12.81 0.01 -0.01zm-44.63 0l2.76 -0.01 0 -7.3c0.17,0.15 0.1,0.08 0.27,0.29 0.8,1.01 3.17,5.54 3.64,5.68 0.7,0.21 1.2,-0.05 1.56,-0.65l3.34 -5.53 0.05 7.53 2.77 0 -0.05 -11.43c0.01,-0.79 0.22,-1.22 -0.41,-1.34 -0.29,-0.05 -1.59,0.01 -1.99,0.01 -0.77,1.18 -1.6,2.64 -2.35,3.95 -0.41,0.71 -0.78,1.3 -1.15,1.94 -0.35,0.62 -0.83,1.64 -1.36,1.99 -0.09,-0.3 -4.4,-7.68 -4.75,-7.81l-2.25 -0.06c-0.39,1.54 -0.1,10.48 -0.1,12.76l0.01 -0.01zm90.94 0l0.42 -0.1 -0.02 -7.53c0.03,0.03 0.09,0.03 0.1,0.09l0.92 1.01c0.3,0.4 0.61,0.8 0.89,1.11 0.7,0.78 1.27,1.48 1.88,2.28 2.39,3.07 2.26,3.48 5,3.07l0.01 -11.69c0.02,-1.3 0.3,-1.01 -2.88,-1.01l-0.05 7.62c-0.56,-0.27 -5.43,-6.7 -6.28,-7.49 -0.38,-0.22 -0.21,-0.14 -1.16,-0.13l-1.31 -0.05 0 12.81 2.47 0 0.02 0zm-73.51 0l9.86 0 0 -2.29 -6.85 -0.05 -0.11 -2.94 5.97 -0.02 0 -2.27 -5.85 0 -0.13 -2.74 6.65 -0.04 0.08 -2.37 -9.55 0c-0.38,1.54 -0.08,10.48 -0.08,12.76l-0 -0.03zm85.65 0l9.86 0 0 -2.29 -6.85 -0.05 -0.11 -2.94 5.97 -0.02 0 -2.27 -5.87 0 -0.11 -2.74 6.65 -0.04 0.08 -2.37 -9.53 0c-0.39,1.54 -0.1,10.48 -0.1,12.76l-0 -0.03zm23.03 -8.95c0,4.39 6.52,3.19 7.31,5.05 0.62,1.45 -1.37,1.74 -2.52,1.74 -1.62,0 -2.79,-0.68 -4.01,-1.22l-1.02 2.1c2.5,1.87 8.12,2.31 10.01,-0.53 1.04,-1.57 0.58,-3.61 -0.69,-4.48 -1.35,-0.92 -3.14,-1.06 -4.74,-1.58 -2.49,-0.81 -1.45,-2.73 0.92,-2.73 1.87,0 2.31,0.63 3.71,0.93l0.84 -2.23c-1.86,-0.55 -2.01,-1.05 -4.54,-1.05 -2.69,0 -5.24,1.23 -5.24,4.01l-0.03 -0.02zm-11.57 0c0,4.39 6.52,3.19 7.31,5.05 0.62,1.45 -1.37,1.74 -2.52,1.74 -1.62,0 -2.79,-0.68 -4.01,-1.22l-1.02 2.1c2.5,1.87 8.12,2.31 10.01,-0.53 1.04,-1.57 0.58,-3.61 -0.69,-4.48 -1.35,-0.92 -3.14,-1.06 -4.74,-1.58 -2.49,-0.81 -1.45,-2.73 0.92,-2.73 1.87,0 2.31,0.63 3.71,0.93l0.84 -2.23c-1.86,-0.55 -2.01,-1.05 -4.54,-1.05 -2.69,0 -5.25,1.23 -5.25,4.01l-0.03 -0.02zm-54.94 8.95l2.93 0 0 -4.63 5.86 0c0,-2.92 0.28,-2.39 -1.35,-2.39l-3.86 0.01c-0.93,0.03 -0.65,-0.11 -0.65,-3.33l6.64 0 0 -2.47c-0.37,0.03 -0.42,0.04 -0.59,0.05l-8.98 -0.05 0 12.81 0 -0.01zm20.22 -10.34l0 10.34 2.93 0 0 -10.34c4.68,0 4.09,0.29 4.09,-1.11 0,-0.5 0.06,-0.67 -0.08,-1.35l-9.44 0.05c-0.34,0 -0.25,0 -0.52,0 -0.23,0 -0.47,-0.02 -0.53,-0.01 -0.76,0.02 -0.55,0.11 -0.55,1.32 0,0.28 -0.04,0.57 -0.02,0.79 0.03,0.49 0,0.35 0.85,0.35 1.08,0 2.17,-0.01 3.27,-0.01l0 -0.02zm-32.26 7.87l3.08 0c2.44,0 3.9,-1.98 3.77,-4.07 -0.14,-2.39 -1.7,-3.81 -4.4,-3.81l-2.47 0 0 7.87 0.01 0zm23.62 2.47l2.93 0 0 -12.35c0,-0.52 -0.28,-0.43 -0.9,-0.42l-1.14 0.01c-0.53,0 -0.27,0 -0.91,-0.05l0 12.81 0.01 0z"/>
 </g>
</svg>
