<?xml version="1.0" encoding="UTF-8"?>
<!DOCTYPE svg PUBLIC "-//W3C//DTD SVG 1.1//EN" "http://www.w3.org/Graphics/SVG/1.1/DTD/svg11.dtd">
<!-- Creator: CorelDRAW -->
<svg xmlns="http://www.w3.org/2000/svg" xml:space="preserve" width="20.7891mm" height="6.1363mm" version="1.1" style="shape-rendering:geometricPrecision; text-rendering:geometricPrecision; image-rendering:optimizeQuality; fill-rule:evenodd; clip-rule:evenodd"
viewBox="0 0 126.85 37.44"
 xmlns:xlink="http://www.w3.org/1999/xlink"
 xmlns:xodm="http://www.corel.com/coreldraw/odm/2003">
 <defs>
  <style type="text/css">
   <![CDATA[
    .fil0 {fill:#3FC1C9}
    .fil1 {fill:white}
   ]]>
  </style>
 </defs>
 <g id="Camada_x0020_1">
  <metadata id="CorelCorpID_0Corel-Layer"/>
  <path class="fil0" d="M0.01 30.84l14.68 0 0 -2.94 -14.68 0 0 2.94zm0 2.94l14.68 0 0 -2.2 -14.68 0 0 2.2zm0 2.2l14.68 0 0 -1.47 -14.68 0 0 1.47zm0 1.47l14.68 0 0 -0.73 -14.68 0 0 0.73zm0 -10.28l14.68 0c0,-8.35 0,-17.03 0,-27.16l-14.68 0c0,13.67 -0.01,20.17 0,27.16z"/>
  <path class="fil1" d="M28.05 25.56c2.48,0 6.41,0.31 8.34,-0.54 4.92,-2.16 4.51,-8.86 0.05,-10.67 -2.22,-0.9 -5.66,-0.58 -8.31,-0.58 -0.36,1.42 -0.09,9.69 -0.09,11.8zm2.75 -2.23c2.76,0 6.33,0.42 6.33,-3.9 0,-3.72 -3.96,-3.43 -6.33,-3.43l0 7.33zm11.11 2.23c2.76,0 6.78,0.34 8.82,-0.76 2.32,-1.24 3.36,-3.59 2.93,-6.28 -0.43,-2.66 -2.56,-4.32 -5.3,-4.68 -0.91,-0.12 -5.89,0.1 -6.44,-0.12l-0.02 11.85zm-41.27 0l2.55 -0.01 0 -6.75c0.16,0.14 0.09,0.07 0.25,0.27 0.74,0.93 2.93,5.12 3.37,5.25 0.65,0.19 1.11,-0.05 1.44,-0.6l3.09 -5.11 0.05 6.96 2.56 0 -0.05 -10.57c0.01,-0.73 0.2,-1.13 -0.38,-1.24 -0.27,-0.05 -1.47,0.01 -1.84,0.01 -0.71,1.09 -1.48,2.44 -2.17,3.65 -0.38,0.66 -0.72,1.2 -1.06,1.79 -0.32,0.57 -0.77,1.52 -1.26,1.84 -0.08,-0.28 -4.07,-7.1 -4.39,-7.22l-2.08 -0.06c-0.36,1.42 -0.09,9.69 -0.09,11.8zm84.1 0l0.39 -0.09 -0.02 -6.96c0.03,0.03 0.08,0.03 0.09,0.08l0.85 0.93c0.28,0.37 0.56,0.74 0.82,1.03 0.65,0.72 1.17,1.37 1.74,2.11 2.21,2.84 2.09,3.22 4.62,2.84l0.01 -10.81c0.02,-1.2 0.28,-0.93 -2.66,-0.93l-0.05 7.05c-0.52,-0.25 -5.02,-6.2 -5.81,-6.93 -0.35,-0.2 -0.19,-0.13 -1.07,-0.12l-1.21 -0.05 0 11.85 2.28 0zm-67.98 0l9.12 -0 0 -2.12 -6.33 -0.05 -0.1 -2.72 5.52 -0.02 0 -2.1 -5.41 0 -0.12 -2.53 6.15 -0.04 0.07 -2.19 -8.83 0c-0.35,1.42 -0.07,9.69 -0.07,11.8zm79.21 0l9.12 -0 0 -2.12 -6.33 -0.05 -0.1 -2.72 5.52 -0.02 0 -2.1 -5.43 0 -0.1 -2.53 6.15 -0.04 0.07 -2.19 -8.81 0c-0.36,1.42 -0.09,9.69 -0.09,11.8zm21.3 -8.28c0,4.06 6.03,2.95 6.76,4.67 0.57,1.34 -1.27,1.61 -2.33,1.61 -1.5,0 -2.58,-0.63 -3.71,-1.13l-0.94 1.94c2.31,1.73 7.51,2.14 9.26,-0.49 0.96,-1.45 0.54,-3.34 -0.64,-4.14 -1.25,-0.85 -2.9,-0.98 -4.38,-1.46 -2.3,-0.75 -1.34,-2.52 0.85,-2.52 1.73,0 2.14,0.58 3.43,0.86l0.78 -2.06c-1.72,-0.51 -1.86,-0.97 -4.2,-0.97 -2.49,0 -4.85,1.14 -4.85,3.71zm-10.7 0c0,4.06 6.03,2.95 6.76,4.67 0.57,1.34 -1.27,1.61 -2.33,1.61 -1.5,0 -2.58,-0.63 -3.71,-1.13l-0.94 1.94c2.31,1.73 7.51,2.14 9.26,-0.49 0.96,-1.45 0.54,-3.34 -0.64,-4.14 -1.25,-0.85 -2.9,-0.98 -4.38,-1.46 -2.3,-0.75 -1.34,-2.52 0.85,-2.52 1.73,0 2.14,0.58 3.43,0.86l0.78 -2.06c-1.72,-0.51 -1.86,-0.97 -4.2,-0.97 -2.49,0 -4.85,1.14 -4.85,3.71zm-50.81 8.28l2.71 0 0 -4.28 5.42 0c0,-2.7 0.26,-2.21 -1.25,-2.21l-3.57 0.01c-0.86,0.03 -0.6,-0.1 -0.6,-3.08l6.14 0 0 -2.28c-0.34,0.03 -0.39,0.04 -0.55,0.05l-8.3 -0.05 0 11.85zm18.7 -9.56l0 9.56 2.71 0 0 -9.56c4.33,0 3.78,0.27 3.78,-1.03 -0,-0.46 0.06,-0.62 -0.07,-1.25l-8.73 0.05c-0.31,0 -0.23,0 -0.48,-0 -0.21,-0 -0.43,-0.02 -0.49,-0.01 -0.7,0.02 -0.51,0.1 -0.51,1.22 -0,0.26 -0.04,0.53 -0.02,0.73 0.03,0.45 0,0.32 0.79,0.32 1,-0 2.01,-0.01 3.02,-0.01zm-29.83 7.28l2.85 0c2.26,0 3.61,-1.83 3.49,-3.76 -0.13,-2.21 -1.57,-3.52 -4.07,-3.52l-2.28 0 0 7.28zm21.84 2.28l2.71 0 0 -11.42c0,-0.48 -0.26,-0.4 -0.83,-0.39l-1.05 0.01c-0.49,0 -0.25,-0 -0.84,-0.05l0 11.85z"/>
  <path class="fil1" d="M3.94 3.96c0,0.39 0.21,0.61 0.61,0.61l2.03 0 0 4.07c0,0.46 0.74,0.65 0.92,0.11 0.03,-0.1 0.02,-0.38 0.02,-0.5l-0 -1.5c0.02,-0.27 0.05,-0.18 0.37,-0.39 0.43,-0.28 0.1,-0.08 0.5,-0.19l1.79 -0.5c0.41,-0.13 0.61,-0.5 0.31,-0.8 -0.27,-0.28 -0.79,-0.04 -1.13,0.06l-1.22 0.34 0 -0.78c0.2,-0.05 1.83,-1.15 2.13,-1.33 0.68,-0.42 0.31,-1.09 -0.18,-1.09 -0.26,0 -0.7,0.36 -0.9,0.48 -0.16,0.1 -0.27,0.16 -0.42,0.27 -0.16,0.11 -0.3,0.19 -0.45,0.28 -0.14,0.09 -0.26,0.18 -0.42,0.28 -0.27,0.16 -0.62,0.09 -1.11,0.09 -0.31,0 -2.29,-0.06 -2.55,0.06 -0.15,0.07 -0.3,0.24 -0.3,0.44zm0.35 -0.13c-0.03,0.13 -0.15,0.42 0.25,0.41 0.13,-0 0.19,-0 0.32,-0 0.33,0 1.78,-0.07 2.02,0.07l0 3.42c0,0.45 -0.08,0.89 0.13,1.04l0.17 -0.05 0.02 -1.17c0.01,-0.09 0,0.02 0,-0.09l-0.01 -0.78c0.01,-0.29 -0.05,-0.25 0.44,-0.54 0.5,-0.3 0.27,-0.17 0.87,-0.34l1.5 -0.39c0.25,-0.02 0.08,-0.04 0.31,-0.1l0 -0.22c-0.21,-0.11 -0.14,-0.07 -0.53,0.03l-1.22 0.34c-0.88,0.22 -0.72,0.43 -0.72,-1.02 0,-0.19 1.1,-0.8 1.31,-0.94 0.17,-0.11 0.31,-0.19 0.48,-0.3 0.38,-0.25 0.85,-0.43 0.66,-0.72 -0.19,-0.28 -0.55,0.1 -0.95,0.34l-1.37 0.88c-0.41,0.24 -2.77,-0.08 -3.68,0.13zm3.55 3.24c0,1.12 1.39,1.18 1.66,0.32 0.2,-0.65 -0.4,-1.3 -1.07,-1.07 -0.31,0.1 -0.59,0.37 -0.59,0.75zm0.3 0.04c0,0.71 1.08,0.77 1.08,-0.04 0,-0.62 -1.08,-0.69 -1.08,0.04z"/>
 </g>
</svg>
