<?xml version="1.0" encoding="UTF-8"?>
<!DOCTYPE svg PUBLIC "-//W3C//DTD SVG 1.1//EN" "http://www.w3.org/Graphics/SVG/1.1/DTD/svg11.dtd">
<!-- Creator: CorelDRAW -->
<svg xmlns="http://www.w3.org/2000/svg" xml:space="preserve" width="21.3181mm" height="18.378mm" version="1.1" style="shape-rendering:geometricPrecision; text-rendering:geometricPrecision; image-rendering:optimizeQuality; fill-rule:evenodd; clip-rule:evenodd"
viewBox="0 0 138.34 119.26"
 xmlns:xlink="http://www.w3.org/1999/xlink"
 xmlns:xodm="http://www.corel.com/coreldraw/odm/2003">
 <defs>
  <style type="text/css">
   <![CDATA[
    .fil1 {fill:white}
    .fil0 {fill:white;fill-rule:nonzero}
   ]]>
  </style>
 </defs>
 <g id="Camada_x0020_1">
  <metadata id="CorelCorpID_0Corel-Layer"/>
  <path class="fil0" d="M44.32 97.14l47.9 0 0 -7.96 -47.9 0 0 7.96zm48.54 1.3l-49.84 0 0 -10.56 50.49 0 0 10.56 -0.65 0zm-48.54 7.97l47.9 0 0 -5.63 -47.9 0 0 5.63zm48.54 1.3l-49.84 0 0 -8.23 50.49 0 0 8.23 -0.65 0zm-48.54 5.63l47.9 0 0 -3.33 -47.9 0 0 3.33zm48.54 1.3l-49.84 0 0 -5.93 50.49 0 0 5.93 -0.65 0zm-48.54 3.33l47.9 0 0 -1 -47.9 0 0 1zm48.54 1.3l-49.84 0 0 -3.6 50.49 0 0 3.6 -0.65 0zm-48.55 -33.69l47.9 0 0 -84.28 -47.9 0 -0.01 40.24c-0.01,17.8 -0.01,30.68 0.01,44.04zm48.55 1.3l-49.84 0 -0 -0.65c-0.02,-13.59 -0.01,-26.6 -0.01,-44.69l0.01 -41.54 50.49 0 0 86.87 -0.65 0z"/>
  <path class="fil1" d="M57.53 13.09c0,1.23 0.66,1.92 1.92,1.92l6.4 0 0 12.82c0,1.45 2.33,2.05 2.9,0.35 0.09,-0.32 0.06,-1.2 0.06,-1.57l0 -4.73c0.06,-0.85 0.16,-0.57 1.17,-1.23 1.35,-0.88 0.32,-0.25 1.57,-0.6l5.64 -1.57c1.29,-0.41 1.92,-1.57 0.98,-2.52 -0.85,-0.88 -2.49,-0.13 -3.56,0.19l-3.84 1.07 0 -2.46c0.63,-0.16 5.77,-3.62 6.71,-4.19 2.14,-1.32 0.98,-3.43 -0.57,-3.43 -0.82,0 -2.21,1.13 -2.84,1.51 -0.5,0.32 -0.85,0.5 -1.32,0.85 -0.5,0.35 -0.95,0.6 -1.42,0.88 -0.44,0.28 -0.82,0.57 -1.32,0.88 -0.85,0.5 -1.95,0.28 -3.5,0.28 -0.98,0 -7.21,-0.19 -8.03,0.19 -0.47,0.22 -0.95,0.76 -0.95,1.39l-0 -0.03zm1.1 -0.41c-0.09,0.41 -0.47,1.32 0.79,1.29 0.41,0 0.6,0 1.01,0 1.04,0 5.61,-0.22 6.37,0.22l0 10.78c0,1.42 -0.25,2.8 0.41,3.28l0.54 -0.16 0.06 -3.69c0.03,-0.28 0,0.06 0,-0.28l-0.03 -2.46c0.03,-0.91 -0.16,-0.79 1.39,-1.7 1.57,-0.95 0.85,-0.54 2.74,-1.07l4.73 -1.23c0.79,-0.06 0.25,-0.13 0.98,-0.32l0 -0.69c-0.66,-0.35 -0.44,-0.22 -1.67,0.09l-3.84 1.07c-2.77,0.69 -2.27,1.36 -2.27,-3.21 0,-0.6 3.47,-2.52 4.13,-2.96 0.54,-0.35 0.98,-0.6 1.51,-0.95 1.2,-0.79 2.68,-1.36 2.08,-2.27 -0.6,-0.88 -1.73,0.32 -2.99,1.07l-4.32 2.77c-1.29,0.76 -8.73,-0.25 -11.59,0.41l-0 0zm11.19 10.21c0,3.53 4.38,3.72 5.23,1.01 0.63,-2.05 -1.26,-4.1 -3.37,-3.37 -0.98,0.32 -1.86,1.17 -1.86,2.36l0 0zm0.95 0.13c0,2.24 3.4,2.43 3.4,-0.13 0,-1.95 -3.4,-2.17 -3.4,0.13z"/>
  <path class="fil1" d="M30.14 76.01c2.72,0 7.02,0.34 9.13,-0.59 5.39,-2.37 4.94,-9.7 0.05,-11.69 -2.43,-0.99 -6.2,-0.64 -9.1,-0.64 -0.39,1.55 -0.1,10.61 -0.1,12.92l0.01 -0.01zm3.01 -2.44c3.02,0 6.93,0.46 6.93,-4.27 0,-4.07 -4.34,-3.76 -6.93,-3.76l0 8.03zm12.17 2.44c3.02,0 7.43,0.37 9.66,-0.83 2.54,-1.36 3.68,-3.93 3.21,-6.88 -0.47,-2.91 -2.8,-4.73 -5.81,-5.13 -1,-0.13 -6.45,0.11 -7.05,-0.13l-0.02 12.98 0.01 -0.01zm-45.2 0l2.79 -0.01 0 -7.39c0.18,0.15 0.1,0.08 0.27,0.3 0.81,1.02 3.21,5.61 3.69,5.75 0.71,0.21 1.22,-0.06 1.58,-0.66l3.38 -5.6 0.05 7.62 2.8 0 -0.05 -11.58c0.01,-0.8 0.22,-1.24 -0.42,-1.36 -0.3,-0.05 -1.61,0.01 -2.02,0.01 -0.78,1.19 -1.62,2.67 -2.38,4 -0.42,0.72 -0.79,1.31 -1.16,1.96 -0.35,0.62 -0.84,1.66 -1.38,2.02 -0.09,-0.31 -4.46,-7.78 -4.81,-7.91l-2.28 -0.07c-0.39,1.55 -0.1,10.61 -0.1,12.92l0.01 -0.01zm92.11 0l0.43 -0.1 -0.02 -7.62c0.03,0.03 0.09,0.03 0.1,0.09l0.93 1.02c0.31,0.4 0.61,0.81 0.9,1.13 0.71,0.79 1.28,1.5 1.91,2.31 2.42,3.11 2.29,3.53 5.06,3.11l0.01 -11.84c0.02,-1.31 0.31,-1.02 -2.91,-1.02l-0.05 7.72c-0.57,-0.27 -5.5,-6.79 -6.36,-7.59 -0.38,-0.22 -0.21,-0.14 -1.17,-0.13l-1.33 -0.05 0 12.98 2.5 0 0.02 0zm-74.46 0l9.99 0 0 -2.32 -6.93 -0.06 -0.11 -2.98 6.05 -0.02 0 -2.3 -5.92 0 -0.13 -2.77 6.74 -0.04 0.08 -2.4 -9.67 0c-0.38,1.55 -0.08,10.61 -0.08,12.92l-0 -0.03zm86.76 0l9.99 0 0 -2.32 -6.93 -0.06 -0.11 -2.98 6.05 -0.02 0 -2.3 -5.95 0 -0.11 -2.77 6.74 -0.04 0.08 -2.4 -9.65 0c-0.39,1.55 -0.1,10.61 -0.1,12.92l-0 -0.03zm23.33 -9.07c0,4.45 6.6,3.23 7.4,5.11 0.62,1.47 -1.39,1.76 -2.55,1.76 -1.64,0 -2.83,-0.69 -4.06,-1.24l-1.03 2.12c2.53,1.89 8.23,2.34 10.14,-0.54 1.05,-1.59 0.59,-3.66 -0.7,-4.53 -1.37,-0.93 -3.18,-1.07 -4.8,-1.6 -2.52,-0.82 -1.47,-2.76 0.93,-2.76 1.89,0 2.34,0.64 3.76,0.94l0.85 -2.26c-1.88,-0.56 -2.04,-1.06 -4.6,-1.06 -2.73,0 -5.31,1.25 -5.31,4.06l-0.03 -0.02zm-11.72 0c0,4.45 6.6,3.23 7.4,5.11 0.62,1.47 -1.39,1.76 -2.55,1.76 -1.64,0 -2.83,-0.69 -4.06,-1.24l-1.03 2.12c2.53,1.89 8.23,2.34 10.14,-0.54 1.05,-1.59 0.59,-3.66 -0.7,-4.53 -1.37,-0.93 -3.18,-1.07 -4.8,-1.6 -2.52,-0.82 -1.47,-2.76 0.93,-2.76 1.89,0 2.34,0.64 3.76,0.94l0.85 -2.26c-1.88,-0.56 -2.04,-1.06 -4.6,-1.06 -2.73,0 -5.31,1.25 -5.31,4.06l-0.03 -0.02zm-55.65 9.07l2.97 0 0 -4.69 5.94 0c0,-2.96 0.28,-2.42 -1.37,-2.42l-3.91 0.01c-0.94,0.03 -0.66,-0.11 -0.66,-3.37l6.72 0 0 -2.5c-0.37,0.03 -0.43,0.04 -0.6,0.06l-9.09 -0.06 0 12.98 0 -0.01zm20.48 -10.47l0 10.47 2.97 0 0 -10.47c4.74,0 4.14,0.3 4.14,-1.13 0,-0.5 0.07,-0.68 -0.08,-1.37l-9.56 0.06c-0.34,0 -0.25,0 -0.53,0 -0.23,0 -0.47,-0.02 -0.54,-0.01 -0.77,0.02 -0.56,0.11 -0.56,1.34 0,0.28 -0.04,0.58 -0.02,0.8 0.03,0.49 0,0.35 0.87,0.35 1.1,0 2.2,-0.01 3.31,-0.01l0 -0.02zm-32.67 7.97l3.12 0c2.48,0 3.95,-2 3.82,-4.12 -0.14,-2.42 -1.72,-3.86 -4.46,-3.86l-2.5 0 0 7.97 0.01 0zm23.92 2.5l2.97 0 0 -12.51c0,-0.53 -0.28,-0.44 -0.91,-0.43l-1.15 0.01c-0.54,0 -0.27,0 -0.92,-0.05l0 12.98 0.01 0z"/>
 </g>
</svg>
