<?xml version="1.0" encoding="UTF-8"?>
<!DOCTYPE svg PUBLIC "-//W3C//DTD SVG 1.1//EN" "http://www.w3.org/Graphics/SVG/1.1/DTD/svg11.dtd">
<!-- Creator: CorelDRAW -->
<svg xmlns="http://www.w3.org/2000/svg" xml:space="preserve" width="8.4667mm" height="8.4667mm" version="1.1" style="shape-rendering:geometricPrecision; text-rendering:geometricPrecision; image-rendering:optimizeQuality; fill-rule:evenodd; clip-rule:evenodd"
viewBox="0 0 8.65 8.65"
 xmlns:xlink="http://www.w3.org/1999/xlink"
 xmlns:xodm="http://www.corel.com/coreldraw/odm/2003">
 <defs>
  <style type="text/css">
   <![CDATA[
    .fil0 {fill:lime}
   ]]>
  </style>
 </defs>
 <g id="Camada_x0020_1_0">
  <metadata id="CorelCorpID_0Corel-Layer"/>
  <path class="fil0" d="M2.25 8.03l-2.25 0.61 0.59 -2.24c-0.37,-0.65 -0.57,-1.38 -0.57,-2.13 0,-2.36 1.93,-4.28 4.31,-4.28 2.38,0 4.31,1.92 4.31,4.28 0,2.36 -1.93,4.28 -4.31,4.28 -0.73,0 -1.45,-0.18 -2.08,-0.53zm2.08 -7.31c1.98,0 3.58,1.59 3.58,3.56 0,1.97 -1.6,3.56 -3.58,3.56 -0.73,0 -1.41,-0.22 -1.97,-0.59l-1.34 0.36 0.35 -1.33c-0.39,-0.57 -0.62,-1.26 -0.62,-2.01 0,-1.97 1.6,-3.56 3.58,-3.56zm-2.17 2.48c-0.03,1.3 1.72,2.89 3.06,3.1 0.58,0.09 1.2,-0.16 1.27,-0.78 0.04,-0.35 -0.95,-0.86 -1.21,-0.57 -0.31,0.34 -0.27,0.5 -0.58,0.37 -0.3,-0.12 -1.57,-1 -1.43,-1.4 0.03,-0.09 0.27,-0.28 0.32,-0.45 0.04,-0.14 -0.24,-1.09 -0.61,-1.15 -0.55,-0.03 -0.72,0.45 -0.82,0.88z"/>
 </g>
</svg>
